<svg width="140" height="51" viewBox="0 0 140 51" fill="none" xmlns="http://www.w3.org/2000/svg">
<path d="M7.912 39.828C7.66667 39.828 7.46733 39.782 7.314 39.69C7.19133 39.598 7.02267 39.552 6.808 39.552L6.762 39.598C6.762 39.598 6.73133 39.598 6.67 39.598C6.63933 39.6287 6.532 39.598 6.348 39.506L5.98 39.368L5.934 39.414C5.934 39.4447 5.91867 39.46 5.888 39.46C5.94933 39.46 5.82667 39.3833 5.52 39.23C5.36667 39.23 5.18267 39.1687 4.968 39.046L4.324 38.494C4.26267 38.4633 4.17067 38.4327 4.048 38.402C3.956 38.3713 3.84867 38.3407 3.726 38.31C3.57267 38.218 3.37333 38.08 3.128 37.896C2.91333 37.712 2.68333 37.4667 2.438 37.16L2.392 36.838L2.162 36.516L2.07 35.872C2.03933 35.7493 1.978 35.6113 1.886 35.458C1.82467 35.274 1.76333 35.0747 1.702 34.86C1.61 34.8293 1.48733 34.7067 1.334 34.492C1.15 34.0627 1.058 33.7713 1.058 33.618C1.058 33.5873 1.08867 33.5413 1.15 33.48C1.21133 33.388 1.25733 33.342 1.288 33.342C1.22667 33.25 1.07333 33.1273 0.828 32.974L0.782 32.468C0.996667 32.3147 1.13467 32.238 1.196 32.238H1.518C1.61 32.2073 1.71733 32.1767 1.84 32.146C1.96267 32.1153 2.10067 32.0847 2.254 32.054C2.40733 31.9927 2.53 32.0387 2.622 32.192C2.65267 32.3147 2.74467 32.376 2.898 32.376C2.92867 32.376 3.00533 32.2687 3.128 32.054L3.542 31.502C4.002 31.6553 4.278 31.7167 4.37 31.686L5.106 31.18H5.566V31.686L5.98 31.87L5.888 32.56C5.888 32.6213 5.934 32.698 6.026 32.79C6.118 32.882 6.164 32.9433 6.164 32.974C6.19467 33.0047 6.17933 33.0813 6.118 33.204L5.98 33.434C6.04133 33.6793 6.17933 33.894 6.394 34.078C6.45533 34.078 6.578 34.1087 6.762 34.17C6.762 34.2927 6.808 34.4 6.9 34.492C7.02267 34.584 7.14533 34.5993 7.268 34.538C7.268 34.538 7.29867 34.676 7.36 34.952C7.42133 35.1053 7.48267 35.182 7.544 35.182C7.544 35.182 7.60533 35.1513 7.728 35.09C7.78933 35.0287 7.85067 34.998 7.912 34.998L8.142 35.044C8.20333 35.044 8.24933 35.0593 8.28 35.09C8.31067 35.1207 8.34133 35.136 8.372 35.136C8.40267 35.136 8.464 35.09 8.556 34.998C8.67867 34.9367 8.75533 34.906 8.786 34.906C8.81667 34.8753 8.924 34.8907 9.108 34.952L9.384 35.044C9.384 35.044 9.44533 35.0133 9.568 34.952L9.706 34.906C9.706 34.906 9.798 34.9367 9.982 34.998C10.0433 34.9367 10.074 34.8753 10.074 34.814C10.074 34.5687 10.12 34.2467 10.212 33.848L10.626 33.802C10.7793 33.802 10.8713 33.7407 10.902 33.618C10.8713 33.5873 10.8253 33.5413 10.764 33.48C10.7027 33.4187 10.6413 33.3573 10.58 33.296C10.5493 33.1733 10.5187 33.0507 10.488 32.928C10.4573 32.7747 10.4267 32.6213 10.396 32.468C10.396 32.376 10.442 32.284 10.534 32.192C10.626 32.1613 10.7027 32.1153 10.764 32.054C10.764 32.054 10.7027 32.0693 10.58 32.1C10.4267 32.1 10.304 31.9467 10.212 31.64L10.028 31.088C9.936 31.0267 9.85933 30.95 9.798 30.858C9.67533 30.7353 9.614 30.6127 9.614 30.49C9.614 30.4287 9.62933 30.3827 9.66 30.352C9.62933 30.2907 9.53733 30.2907 9.384 30.352L9.154 29.708C9.12333 29.708 9.108 29.7233 9.108 29.754C9.04667 29.8153 9.00067 29.846 8.97 29.846C8.93933 29.8153 8.878 29.8 8.786 29.8L8.694 29.386L8.372 29.248L7.82 28.742C7.78933 28.6807 7.728 28.6347 7.636 28.604C7.57467 28.5733 7.48267 28.5273 7.36 28.466L7.314 28.098C7.28333 28.0367 7.23733 27.9907 7.176 27.96C7.11467 27.8987 7.05333 27.8373 6.992 27.776H6.762C6.73133 27.8067 6.65467 27.822 6.532 27.822C6.50133 27.8527 6.42467 27.776 6.302 27.592C6.24067 27.4693 6.17933 27.3773 6.118 27.316C6.05667 27.224 5.99533 27.1627 5.934 27.132L5.198 26.672L4.83 26.534L4.784 26.12L4.002 25.706L3.818 25.384C3.75667 25.2307 3.634 25.154 3.45 25.154H3.404C3.312 25.062 3.266 24.97 3.266 24.878C2.83667 24.1727 2.60667 23.82 2.576 23.82C2.576 23.82 2.484 23.8507 2.3 23.912H2.254C2.10067 23.912 2.00867 23.8047 1.978 23.59L1.84 23.038C1.53333 23.038 1.334 22.6853 1.242 21.98L0.828 21.796C0.797333 21.5813 0.766667 21.428 0.736 21.336C0.736 21.244 0.736 21.2133 0.736 21.244C0.766667 20.968 0.797333 20.8607 0.828 20.922C0.797333 20.7687 0.705333 20.6613 0.552 20.6C0.46 20.6 0.383333 20.554 0.322 20.462C0.291333 20.1247 0.291333 19.8027 0.322 19.496C0.352667 19.1587 0.383333 18.8213 0.414 18.484C0.414 18.392 0.383333 18.254 0.322 18.07L0.184 17.748L0.322 17.564V17.38C0.322 17.0733 0.383333 16.736 0.506 16.368C0.536667 16.368 0.598 16.368 0.69 16.368C0.782 16.3373 0.858667 16.276 0.92 16.184L0.644 15.586L1.242 14.436C1.48733 14.0067 1.68667 13.792 1.84 13.792L2.116 13.838C2.14667 13.838 2.17733 13.8227 2.208 13.792C2.208 13.7613 2.17733 13.6387 2.116 13.424H2.3C2.36133 13.424 2.392 13.424 2.392 13.424L2.668 13.056C2.72933 12.9947 2.898 12.9333 3.174 12.872L3.358 12.366H3.542C3.57267 12.3967 3.60333 12.4273 3.634 12.458C3.66467 12.4887 3.69533 12.5347 3.726 12.596C3.94067 12.504 4.12467 12.2893 4.278 11.952L4.692 11.63C4.692 11.63 4.70733 11.63 4.738 11.63C4.79933 11.63 4.876 11.6147 4.968 11.584L5.198 11.63C5.29 11.6607 5.36667 11.676 5.428 11.676C5.52 11.676 5.67333 11.5687 5.888 11.354C6.13333 11.17 6.27133 11.078 6.302 11.078L6.716 11.308C6.716 11.4 6.73133 11.4767 6.762 11.538L7.498 11.17C7.59 11.17 7.82 11.308 8.188 11.584C8.24933 11.676 8.24933 11.8907 8.188 12.228L8.326 12.182L8.372 11.998C8.43333 11.9673 8.49467 11.9213 8.556 11.86C8.61733 11.7987 8.694 11.7373 8.786 11.676C8.786 11.6147 8.832 11.5227 8.924 11.4C8.95467 11.4307 8.98533 11.4613 9.016 11.492C9.07733 11.5227 9.13867 11.5687 9.2 11.63C9.32267 11.7527 9.41467 11.814 9.476 11.814C9.53733 11.7527 9.62933 11.7067 9.752 11.676H9.844C10.12 11.676 10.4267 11.7833 10.764 11.998L11.362 12.458L11.408 12.688C11.3467 12.688 11.27 12.734 11.178 12.826C11.27 12.9793 11.408 13.056 11.592 13.056V13.24C11.6533 13.2707 11.7607 13.2553 11.914 13.194C11.9753 13.378 12.1287 13.47 12.374 13.47C12.4353 13.47 12.512 13.5467 12.604 13.7C12.5733 13.792 12.5733 13.8993 12.604 14.022C12.9413 14.6353 13.11 14.9113 13.11 14.85V14.896C13.11 14.988 13.0487 15.1567 12.926 15.402C12.7727 15.77 12.696 15.9693 12.696 16C12.696 16.1227 12.88 16.2147 13.248 16.276C13.5853 16.3373 13.7387 16.3987 13.708 16.46L13.938 16.782C13.9073 16.8127 13.892 16.874 13.892 16.966C13.892 17.058 13.9227 17.196 13.984 17.38C14.1067 17.656 14.168 17.8553 14.168 17.978C14.1067 18.0393 14.03 18.116 13.938 18.208C13.846 18.2693 13.7387 18.346 13.616 18.438C13.5547 18.4687 13.4473 18.4993 13.294 18.53C13.1713 18.5607 12.9873 18.5913 12.742 18.622L11.73 18.76C11.6687 18.7907 11.592 18.8213 11.5 18.852C11.408 18.8827 11.316 18.9133 11.224 18.944L10.672 18.76C10.488 18.8213 10.35 18.99 10.258 19.266C10.1353 19.5727 10.0127 19.726 9.89 19.726C9.85933 19.726 9.81333 19.6493 9.752 19.496C9.66 19.3427 9.59867 19.266 9.568 19.266C9.53733 19.266 9.476 19.312 9.384 19.404L9.108 19.45L9.016 19.128C9.016 19.0053 9.062 18.898 9.154 18.806C9.21533 18.6833 9.246 18.6067 9.246 18.576L9.016 18.3C9.13867 18.208 9.246 18.024 9.338 17.748C9.154 17.748 8.924 17.702 8.648 17.61C8.648 17.5487 8.63267 17.472 8.602 17.38C8.57133 17.2573 8.52533 17.1347 8.464 17.012L8.28 16.506C8.12667 16.2913 7.82 16.1227 7.36 16L6.946 16.046C6.88467 16.046 6.808 16.0613 6.716 16.092C6.65467 16.092 6.56267 16.1073 6.44 16.138C6.348 16.138 6.22533 16 6.072 15.724C6.01067 15.724 5.98 15.7853 5.98 15.908L6.21 16.368C5.87267 16.644 5.59667 16.7667 5.382 16.736V17.426C5.32067 17.4873 5.27467 17.5487 5.244 17.61C5.244 17.6713 5.244 17.748 5.244 17.84C5.27467 17.932 5.30533 18.0393 5.336 18.162C5.39733 18.438 5.41267 18.622 5.382 18.714C5.382 18.7447 5.36667 18.7753 5.336 18.806C5.27467 18.8673 5.244 18.944 5.244 19.036C5.244 19.0973 5.29 19.174 5.382 19.266C5.44333 19.3887 5.474 19.45 5.474 19.45C5.474 19.4807 5.36667 19.6033 5.152 19.818C4.93733 20.0327 4.83 20.1553 4.83 20.186C4.86067 20.7687 5.09067 21.06 5.52 21.06H5.658C5.75 21.06 5.842 21.06 5.934 21.06C6.026 21.0293 6.118 21.014 6.21 21.014C6.33267 21.014 6.45533 21.0293 6.578 21.06C6.70067 21.06 6.82333 21.0753 6.946 21.106V21.566C6.946 21.75 7.14533 22.0107 7.544 22.348C7.60533 22.348 7.682 22.3633 7.774 22.394C7.89667 22.394 8.01933 22.4093 8.142 22.44L8.28 22.716C8.34133 22.7467 8.44867 22.8387 8.602 22.992L8.786 23.36C8.84733 23.452 8.90867 23.498 8.97 23.498C9.21533 23.4673 9.36867 23.4367 9.43 23.406C9.46067 23.406 9.46067 23.406 9.43 23.406C9.522 24.2033 9.58333 24.602 9.614 24.602L10.12 24.004H10.258L10.442 24.51C10.4727 24.5407 10.488 24.556 10.488 24.556C10.5187 24.556 10.534 24.556 10.534 24.556L10.81 24.464C10.9327 24.4947 10.9787 24.648 10.948 24.924L11.408 25.154C11.4387 25.154 11.546 25.2767 11.73 25.522C12.006 25.522 12.2053 25.6293 12.328 25.844C12.3587 25.9053 12.3893 25.982 12.42 26.074C12.4507 26.1353 12.4967 26.2273 12.558 26.35L12.926 26.534C12.926 26.5953 12.926 26.672 12.926 26.764C12.926 26.856 12.9413 26.9787 12.972 27.132C12.972 27.2853 13.0027 27.3927 13.064 27.454C13.0947 27.454 13.202 27.3467 13.386 27.132C13.5393 27.1627 13.6467 27.316 13.708 27.592C13.7693 27.8373 13.8613 27.96 13.984 27.96C14.0453 27.96 14.0913 27.9447 14.122 27.914C14.1527 28.006 14.168 28.1133 14.168 28.236C14.168 28.328 14.168 28.4353 14.168 28.558C14.168 28.65 14.2293 28.742 14.352 28.834C14.4747 28.8953 14.582 28.9107 14.674 28.88L14.858 29.478C14.9193 29.6313 14.8733 29.7387 14.72 29.8C14.7813 29.8613 14.8427 29.8767 14.904 29.846L14.858 30.076L15.088 30.444L15.134 30.812C15.226 30.904 15.2873 30.9807 15.318 31.042C15.4407 31.1953 15.5173 31.7013 15.548 32.56C15.5173 32.652 15.502 32.836 15.502 33.112L15.318 33.388C15.3793 33.5107 15.4253 33.7407 15.456 34.078L15.272 34.262C15.272 34.446 15.1033 34.952 14.766 35.78L14.582 35.642C14.49 35.6727 14.444 35.7647 14.444 35.918C14.444 36.3167 14.4287 36.5313 14.398 36.562L13.938 36.838C13.9687 37.0527 13.9687 37.206 13.938 37.298L13.202 37.896L13.018 38.172C12.8033 38.3253 12.5887 38.4787 12.374 38.632C12.19 38.7547 11.9907 38.8467 11.776 38.908C11.7453 38.908 11.684 38.9233 11.592 38.954C11.5307 38.954 11.4387 38.9693 11.316 39C11.1933 39.1533 10.9787 39.3373 10.672 39.552L10.212 39.414L9.936 39.552C9.87467 39.6133 9.69067 39.644 9.384 39.644H8.648C8.52533 39.6747 8.40267 39.7053 8.28 39.736C8.188 39.7667 8.06533 39.7973 7.912 39.828ZM3.404 16.598C3.43467 16.5673 3.542 16.5213 3.726 16.46L4.094 16.506L4.462 16.598C4.70733 16.5367 4.83 16.3987 4.83 16.184L4.784 16L4.14 16.092C3.98667 16.092 3.83333 16.1533 3.68 16.276C3.46533 16.1227 3.312 16.046 3.22 16.046C3.25067 16.1073 3.28133 16.184 3.312 16.276C3.34267 16.368 3.37333 16.4753 3.404 16.598ZM2.53 16.506C2.622 16.5673 2.69867 16.506 2.76 16.322C2.69867 16.2607 2.63733 16.2607 2.576 16.322C2.51467 16.3833 2.49933 16.4447 2.53 16.506ZM11.868 16.644L12.052 16.46C12.052 16.4293 11.9907 16.4293 11.868 16.46V16.644ZM12.466 16.874C12.558 16.9047 12.65 16.8587 12.742 16.736C12.7113 16.7053 12.6653 16.69 12.604 16.69C12.512 16.69 12.466 16.7513 12.466 16.874ZM4.646 17.38C4.646 17.2573 4.61533 17.196 4.554 17.196C4.52333 17.1347 4.462 17.15 4.37 17.242C4.37 17.334 4.462 17.38 4.646 17.38ZM1.38 18.714C1.41067 18.7447 1.426 18.7753 1.426 18.806C1.45667 18.8367 1.48733 18.8673 1.518 18.898C1.518 18.8673 1.518 18.8213 1.518 18.76V18.714H1.38ZM7.728 23.636C7.78933 23.636 7.85067 23.6053 7.912 23.544C7.97333 23.4827 7.94267 23.4213 7.82 23.36C7.75867 23.4213 7.728 23.5133 7.728 23.636ZM4.14 23.636C4.14 23.5747 4.10933 23.5133 4.048 23.452C3.98667 23.3907 3.92533 23.4213 3.864 23.544C3.864 23.636 3.956 23.6667 4.14 23.636ZM10.672 29.478C10.7333 29.478 10.7947 29.4473 10.856 29.386C10.856 29.294 10.8253 29.2173 10.764 29.156C10.672 29.2173 10.6413 29.3247 10.672 29.478ZM12.604 30.122C12.604 30.0607 12.5733 29.9993 12.512 29.938C12.42 29.8767 12.3433 29.9073 12.282 30.03C12.3433 30.122 12.4507 30.1527 12.604 30.122ZM13.386 31.87C13.386 31.778 13.34 31.7167 13.248 31.686C13.1867 31.686 13.1253 31.7167 13.064 31.778C13.1253 31.87 13.2327 31.9007 13.386 31.87ZM10.764 32.008C10.7947 32.0387 10.7947 32.054 10.764 32.054C10.7947 32.0233 10.81 32.008 10.81 32.008H10.764ZM3.818 33.02L4.002 32.882C4.002 32.882 3.97133 32.8513 3.91 32.79C3.91 32.79 3.89467 32.8207 3.864 32.882C3.83333 32.9433 3.818 32.9893 3.818 33.02ZM5.428 38.218L5.612 38.172C5.64267 38.1413 5.75 38.126 5.934 38.126L6.486 37.482C6.42467 37.4207 6.36333 37.3287 6.302 37.206C6.24067 37.0527 6.17933 36.884 6.118 36.7V36.562C6.118 36.4087 6.164 36.286 6.256 36.194L5.796 36.24L6.072 37.16C6.072 37.4053 6.04133 37.4973 5.98 37.436L5.934 37.39C5.934 37.39 5.90333 37.39 5.842 37.39C5.78067 37.482 5.612 37.666 5.336 37.942C5.39733 38.0033 5.428 38.0953 5.428 38.218ZM7.728 36.7C7.728 36.6693 7.682 36.608 7.59 36.516C7.59 36.516 7.55933 36.5467 7.498 36.608C7.498 36.608 7.52867 36.6233 7.59 36.654C7.65133 36.6847 7.69733 36.7 7.728 36.7ZM4.692 37.298C4.692 37.2367 4.66133 37.1753 4.6 37.114C4.56933 37.0527 4.508 37.068 4.416 37.16C4.416 37.252 4.508 37.298 4.692 37.298ZM7.82 37.39C7.85067 37.3287 7.83533 37.2673 7.774 37.206C7.74333 37.1447 7.66667 37.1753 7.544 37.298C7.60533 37.39 7.69733 37.4207 7.82 37.39ZM19.1856 16.598C19.0629 16.5673 18.9096 16.4753 18.7256 16.322C18.6336 16.23 18.5876 16.1227 18.5876 16C18.5569 15.816 18.5723 15.632 18.6336 15.448L18.8636 15.172C18.8943 15.1413 18.8943 15.0647 18.8636 14.942C18.8636 14.8193 18.8483 14.7427 18.8176 14.712C18.6949 14.6507 18.6183 14.5587 18.5876 14.436C18.5569 14.3747 18.5416 14.1907 18.5416 13.884L18.6336 13.562C18.6643 13.47 18.6796 13.3933 18.6796 13.332C18.6796 13.24 18.6796 13.1787 18.6796 13.148L18.7256 11.952C18.7869 11.768 18.9096 11.676 19.0936 11.676L19.2316 11.722C19.2623 11.7527 19.3083 11.768 19.3696 11.768L19.6456 11.63H20.1976C20.2589 11.63 20.3356 11.6913 20.4276 11.814C20.4889 11.906 20.5349 11.9827 20.5656 12.044C20.6269 12.0747 20.6729 12.1053 20.7036 12.136C20.7649 12.044 20.8876 11.9673 21.0716 11.906L21.1636 11.446C21.2863 11.4767 21.4396 11.5687 21.6236 11.722C21.6849 11.7527 21.8536 11.768 22.1296 11.768C22.1603 11.768 22.2216 11.722 22.3136 11.63C22.4056 11.538 22.4823 11.492 22.5436 11.492L23.0036 11.538C23.0649 11.6607 23.1263 11.814 23.1876 11.998C23.2489 12.1513 23.3103 12.3047 23.3716 12.458C23.3716 12.5193 23.3409 12.5807 23.2796 12.642C23.3409 12.6727 23.3409 12.8567 23.2796 13.194L23.1416 13.378C23.1416 13.5007 23.0956 13.6387 23.0036 13.792L22.8196 13.7C22.7276 13.7 22.6509 13.792 22.5896 13.976C22.6816 14.0987 22.7429 14.16 22.7736 14.16L23.0036 14.068C23.0956 14.068 23.1723 14.1447 23.2336 14.298V14.942L23.3716 15.908V15.954C23.3716 16.1993 23.2183 16.3373 22.9116 16.368L22.6816 16.23C22.6203 16.2607 22.5436 16.2913 22.4516 16.322C22.3903 16.3527 22.3289 16.3833 22.2676 16.414L21.9456 16.322C21.8536 16.2913 21.7616 16.276 21.6696 16.276C21.3629 16.276 21.0563 16.2913 20.7496 16.322C20.4429 16.3527 20.1669 16.3987 19.9216 16.46C19.7989 16.552 19.6456 16.598 19.4616 16.598H19.1856ZM22.0376 12.274C22.0683 12.2433 22.1296 12.228 22.2216 12.228L22.1756 12.044C22.0529 12.0747 22.0069 12.1513 22.0376 12.274ZM19.9216 13.286H19.7376L19.9216 13.516V13.286ZM22.0376 39.46C21.9763 39.46 21.9149 39.4293 21.8536 39.368C21.7923 39.3067 21.7463 39.276 21.7156 39.276L20.7956 39.184C20.7649 39.184 20.6883 39.2147 20.5656 39.276C20.4736 39.3067 20.3816 39.322 20.2896 39.322L19.8756 39.276C19.7529 39.2453 19.6609 39.23 19.5996 39.23C19.5383 39.23 19.4923 39.23 19.4616 39.23C19.4309 39.2607 19.3696 39.2913 19.2776 39.322C19.2163 39.3527 19.1396 39.3833 19.0476 39.414L18.8176 39.322V38.494L19.0016 38.218C19.0323 38.126 19.0476 37.9267 19.0476 37.62C19.1703 37.5893 19.2009 37.4973 19.1396 37.344L19.0016 37.068C19.0016 36.792 19.0936 36.608 19.2776 36.516C19.4616 36.424 19.5536 36.3627 19.5536 36.332C19.5536 36.2707 19.5383 36.2093 19.5076 36.148C19.5076 36.056 19.4923 35.9487 19.4616 35.826C19.3389 35.734 19.2316 35.596 19.1396 35.412C19.1089 35.32 19.0629 35.182 19.0016 34.998C18.9096 34.354 18.8636 33.8787 18.8636 33.572C18.9556 33.4493 18.9709 33.0967 18.9096 32.514L19.0476 32.376C19.0476 32.376 19.0476 32.192 19.0476 31.824C19.1089 31.7627 19.1549 31.6707 19.1856 31.548L18.8176 31.364V30.996C18.8176 30.8427 18.8023 30.6893 18.7716 30.536C18.7716 30.352 18.7563 30.168 18.7256 29.984L18.6336 29.294C18.7563 29.2633 18.8329 28.9567 18.8636 28.374L19.1856 28.42L19.2316 28.374V28.052C19.1396 27.8987 19.0016 27.8527 18.8176 27.914C18.8176 27.73 18.7869 27.4233 18.7256 26.994C18.6949 26.5647 18.6796 26.35 18.6796 26.35C18.6796 26.3193 18.7103 26.212 18.7716 26.028L18.8636 25.844V24.786C18.8636 24.5713 18.8176 24.418 18.7256 24.326V24.142C18.7256 23.958 18.7563 23.8047 18.8176 23.682C18.9709 23.682 19.0629 23.6207 19.0936 23.498C19.1243 23.3753 19.0476 23.2833 18.8636 23.222C18.8943 23.1913 18.9096 23.13 18.9096 23.038C18.9096 22.946 18.8636 22.8387 18.7716 22.716V21.52L18.9556 20.002L18.8636 19.542L18.7256 19.128V18.806H19.3696C19.5229 19.0513 19.6763 19.174 19.8296 19.174L20.1976 18.99C20.4429 18.898 20.5656 18.852 20.5656 18.852C20.5963 18.852 20.6729 18.898 20.7956 18.99C20.9183 19.1127 20.9949 19.174 21.0256 19.174L21.4396 19.036C21.4089 19.0973 21.3936 19.1587 21.3936 19.22C21.3936 19.2507 21.3936 19.266 21.3936 19.266V19.312C21.3936 19.3427 21.5163 19.358 21.7616 19.358C21.9149 19.358 22.0223 19.3273 22.0836 19.266C22.1449 19.2047 22.1909 19.174 22.2216 19.174C22.2523 19.2047 22.3289 19.22 22.4516 19.22H22.5896C22.6509 19.1587 22.6969 19.0667 22.7276 18.944L23.2336 18.714C23.3869 18.714 23.4789 18.806 23.5096 18.99C23.5096 19.1127 23.4943 19.2813 23.4636 19.496C23.4329 19.7107 23.3869 19.9867 23.3256 20.324C22.9269 20.324 22.7276 20.3853 22.7276 20.508C22.7276 20.508 22.8503 20.6307 23.0956 20.876C23.3103 21.0907 23.4176 21.29 23.4176 21.474V21.796C23.3256 22.0107 23.2643 22.118 23.2336 22.118L23.4636 22.854C23.2489 23.038 23.1416 23.1453 23.1416 23.176L23.2796 23.544C23.3103 23.5747 23.3256 23.636 23.3256 23.728C23.3256 23.7893 23.2949 23.912 23.2336 24.096C23.2643 24.1267 23.2796 24.2033 23.2796 24.326L23.2336 24.372L23.2796 24.648C23.3716 24.74 23.4329 24.832 23.4636 24.924L23.3716 25.476L23.0036 25.568C23.0343 25.6907 23.0956 25.706 23.1876 25.614C23.3716 25.7367 23.4636 25.89 23.4636 26.074L23.3716 26.488C23.2796 26.7027 23.2336 26.8407 23.2336 26.902C23.2949 26.9327 23.3409 26.9787 23.3716 27.04C23.4329 27.1013 23.4943 27.1627 23.5556 27.224C23.5556 27.3467 23.4943 27.454 23.3716 27.546C23.1876 27.73 23.0803 27.868 23.0496 27.96C23.2643 28.1133 23.3869 28.328 23.4176 28.604C23.4483 28.696 23.4483 28.8953 23.4176 29.202L23.4636 29.432C23.4943 29.524 23.5096 29.6007 23.5096 29.662V30.076C23.5096 30.2907 23.5096 30.5053 23.5096 30.72C23.5403 30.9347 23.5709 31.1647 23.6016 31.41C23.6016 31.5633 23.5709 31.732 23.5096 31.916C23.5403 31.9773 23.5556 32.0693 23.5556 32.192C23.5556 32.376 23.4943 32.5293 23.3716 32.652C23.2183 32.8667 23.1416 32.9893 23.1416 33.02C23.1416 33.112 23.1876 33.204 23.2796 33.296C23.2796 33.296 23.2336 33.3727 23.1416 33.526C23.0189 33.6487 22.9576 33.7407 22.9576 33.802C23.0189 33.8633 23.0649 33.894 23.0956 33.894C23.1263 33.894 23.1876 33.848 23.2796 33.756C23.3716 33.756 23.4483 33.7867 23.5096 33.848L23.5556 36.608L23.5096 37.114L23.4636 37.344L23.3256 37.574C23.2336 37.666 23.1876 37.7273 23.1876 37.758C23.2489 37.8807 23.3103 37.9727 23.3716 38.034C23.4943 38.2487 23.5556 38.4787 23.5556 38.724C23.5556 38.8467 23.5096 39.0307 23.4176 39.276H23.1876L22.7276 39.092C22.6049 39.092 22.3749 39.2147 22.0376 39.46ZM21.0256 20.324V20.094C20.9949 20.0633 20.9336 20.048 20.8416 20.048L20.7496 20.186L20.7956 20.324H21.0256ZM21.6236 23.958C21.7463 23.958 21.9149 23.8967 22.1296 23.774L22.3596 23.498C22.3596 23.59 22.3903 23.6667 22.4516 23.728C22.6049 23.6667 22.6816 23.5747 22.6816 23.452C22.6816 23.268 22.6049 23.176 22.4516 23.176L22.2216 23.222C22.0989 22.9153 21.9609 22.762 21.8076 22.762C21.7463 22.854 21.6696 22.9307 21.5776 22.992C21.4549 23.2067 21.3783 23.4213 21.3476 23.636C21.3476 23.8507 21.4396 23.958 21.6236 23.958ZM20.7956 27.546C20.8569 27.546 20.9183 27.5153 20.9796 27.454C20.9796 27.4233 20.9489 27.3773 20.8876 27.316C20.8876 27.408 20.8569 27.4847 20.7956 27.546ZM21.6236 28.834C21.7769 28.7727 21.8689 28.6807 21.8996 28.558L21.6696 28.374C21.5469 28.466 21.5316 28.6193 21.6236 28.834ZM19.0476 29.064C19.1089 29.064 19.1703 29.0333 19.2316 28.972C19.2929 28.9107 19.2776 28.8493 19.1856 28.788C19.0936 28.788 19.0476 28.88 19.0476 29.064ZM21.3476 31.87C21.3783 31.8087 21.3629 31.7473 21.3016 31.686C21.2709 31.6553 21.1943 31.6707 21.0716 31.732C21.1329 31.824 21.2249 31.87 21.3476 31.87ZM21.2096 37.896C21.3323 37.896 21.4549 37.8347 21.5776 37.712C21.5776 37.5587 21.4703 37.482 21.2556 37.482C21.2249 37.5127 21.1789 37.6353 21.1176 37.85C21.1483 37.8807 21.1789 37.896 21.2096 37.896ZM32.3006 45.762C32.178 45.762 32.086 45.6853 32.0246 45.532L31.8866 45.118H31.7026L31.5646 45.348C31.4726 45.4707 31.4113 45.532 31.3806 45.532C31.35 45.532 31.2733 45.5013 31.1506 45.44C31.028 45.348 30.936 45.302 30.8746 45.302L30.7826 45.348H30.6446C30.522 45.348 30.384 45.302 30.2306 45.21C30.016 45.0873 29.878 45.0413 29.8166 45.072L29.6786 45.118H29.4946C29.188 45.118 28.866 44.888 28.5286 44.428H28.4366C28.0686 44.428 27.7926 44.1827 27.6086 43.692L27.4246 43.14C27.4246 43.0787 27.348 43.002 27.1946 42.91L27.2406 42.818C27.2406 42.7873 27.21 42.7107 27.1486 42.588C27.118 42.5267 27.1026 42.45 27.1026 42.358C27.1026 42.174 27.1486 41.9287 27.2406 41.622L27.4706 40.932C27.624 40.7173 27.9 40.4567 28.2986 40.15L28.3446 39.92C28.498 39.6747 28.7586 39.506 29.1266 39.414C29.188 39.322 29.2186 39.2147 29.2186 39.092C29.2493 39 29.28 38.8927 29.3106 38.77C29.2493 38.7087 29.1266 38.678 28.9426 38.678H28.8966C28.59 38.3713 28.4213 38.1873 28.3906 38.126C28.268 37.9727 28.1913 37.758 28.1606 37.482L27.8846 37.252C27.946 37.068 27.9766 36.93 27.9766 36.838V36.516C27.9766 36.4547 27.9613 36.3933 27.9306 36.332C27.9306 36.2707 27.9306 36.2247 27.9306 36.194C27.9306 36.01 28.038 35.826 28.2526 35.642C28.2526 35.642 28.2526 35.4887 28.2526 35.182V35.136C28.2833 35.1053 28.3293 35.09 28.3906 35.09L28.6206 35.274C28.7433 35.274 28.8046 35.228 28.8046 35.136C28.8046 35.0133 28.7433 34.9367 28.6206 34.906C28.8046 34.8447 28.958 34.7833 29.0806 34.722L29.5866 33.71C29.924 33.5567 30.0926 33.3573 30.0926 33.112C30.0926 33.0507 30.0313 32.974 29.9086 32.882C29.786 32.882 29.7093 32.9433 29.6786 33.066H29.5406C29.4793 32.9433 29.4486 32.836 29.4486 32.744C29.4486 32.6827 29.418 32.652 29.3566 32.652L29.1726 32.698C28.958 32.698 28.774 32.5293 28.6206 32.192C28.4673 31.824 28.2833 31.6247 28.0686 31.594C28.038 31.5327 28.0073 31.4867 27.9766 31.456C27.9766 31.3947 27.9766 31.3487 27.9766 31.318C28.038 31.318 28.1146 31.1953 28.2066 30.95H28.1606C28.13 30.9193 28.038 30.904 27.8846 30.904C27.7926 30.444 27.7466 30.168 27.7466 30.076C27.7466 30.0147 27.7926 29.9227 27.8846 29.8C27.946 29.616 27.9766 29.524 27.9766 29.524L27.8846 29.248C27.854 29.1867 27.8233 29.1407 27.7926 29.11C27.762 29.0487 27.7466 29.0027 27.7466 28.972L27.6086 27.27H27.6546V26.442C27.6546 26.2887 27.67 26.166 27.7006 26.074C27.7006 25.9513 27.6546 25.7827 27.5626 25.568C27.532 25.4453 27.5013 25.338 27.4706 25.246C27.4706 25.154 27.4706 25.0773 27.4706 25.016C27.4706 24.9547 27.5473 24.8013 27.7006 24.556L27.6546 23.866L27.4706 23.59C27.5626 23.5287 27.7313 23.3753 27.9766 23.13C27.8233 22.9767 27.7466 22.8233 27.7466 22.67C27.7466 22.5473 27.7466 22.394 27.7466 22.21C27.7773 22.026 27.808 21.796 27.8386 21.52C27.992 21.428 28.0993 21.382 28.1606 21.382C28.2526 21.382 28.314 21.3973 28.3446 21.428L28.3906 20.968C28.6053 20.8453 28.682 20.6767 28.6206 20.462H28.7126C28.9273 20.462 29.1573 20.3547 29.4026 20.14L29.3106 19.864C29.3106 19.7107 29.3566 19.6187 29.4486 19.588C29.6326 19.5573 29.8166 19.5267 30.0006 19.496C30.1846 19.4653 30.3533 19.4193 30.5066 19.358L31.4266 18.99C31.488 18.9287 31.5646 18.852 31.6566 18.76C31.7793 18.668 31.9173 18.5913 32.0706 18.53H32.3926L32.6226 18.392H32.6686C32.8526 18.392 33.0826 18.4533 33.3586 18.576C33.42 18.576 33.512 18.622 33.6346 18.714C33.7266 18.806 33.8033 18.852 33.8646 18.852L34.0026 18.806C34.0333 18.806 34.0486 18.806 34.0486 18.806C34.0793 18.7753 34.11 18.76 34.1406 18.76C34.2326 18.76 34.294 18.7753 34.3246 18.806C34.386 18.8673 34.4473 18.898 34.5086 18.898L34.6006 18.852C34.6313 18.8213 34.6466 18.806 34.6466 18.806H34.6926C34.662 18.806 34.6466 18.806 34.6466 18.806C34.6466 18.8367 34.754 18.898 34.9686 18.99L35.5206 19.082C35.6433 19.1127 35.7966 19.266 35.9806 19.542L36.4866 19.634C36.732 19.6953 36.8546 19.7873 36.8546 19.91L36.7626 20.094C36.7013 20.278 36.6706 20.37 36.6706 20.37C36.6706 20.4313 36.7473 20.462 36.9006 20.462C37.33 20.462 37.4986 20.2473 37.4066 19.818C37.652 19.818 37.9433 19.6493 38.2806 19.312C38.618 18.9747 38.7866 18.806 38.7866 18.806C38.8173 18.806 38.9246 18.898 39.1086 19.082C39.1393 18.99 39.2926 18.806 39.5686 18.53C39.6913 18.53 39.906 18.484 40.2126 18.392L40.6726 19.22C40.6726 19.312 40.6573 19.4193 40.6266 19.542C40.5653 19.7873 40.5346 19.956 40.5346 20.048C40.412 20.1707 40.3506 20.4467 40.3506 20.876C40.3506 21.244 40.4426 21.5507 40.6266 21.796L40.7186 22.44C40.7493 22.44 40.7186 22.486 40.6266 22.578C40.5653 22.6393 40.458 22.716 40.3046 22.808C40.1206 22.5933 39.9826 22.486 39.8906 22.486L39.6606 22.532C39.63 22.532 39.584 22.5473 39.5226 22.578C39.492 22.578 39.4613 22.578 39.4306 22.578C39.4 22.578 39.3386 22.5167 39.2466 22.394C39.1546 22.2713 39.078 22.21 39.0166 22.21C38.9553 22.21 38.894 22.2407 38.8326 22.302L38.6026 22.256H38.4646C38.4646 22.4707 38.5566 22.67 38.7406 22.854C38.7406 22.8847 38.71 22.9613 38.6486 23.084C38.5873 23.268 38.5566 23.36 38.5566 23.36C38.5566 23.4213 38.6026 23.498 38.6946 23.59C38.756 23.7127 38.7866 23.7893 38.7866 23.82C38.7866 24.096 38.6946 24.234 38.5106 24.234L38.4186 24.188C38.296 24.188 38.2346 24.3413 38.2346 24.648C38.2346 24.7707 38.2806 24.8627 38.3726 24.924L38.2806 25.062C38.2806 25.0927 38.3113 25.1387 38.3726 25.2C38.434 25.2613 38.4646 25.3073 38.4646 25.338C38.4646 25.3687 38.4493 25.43 38.4186 25.522C38.4186 25.5833 38.4033 25.66 38.3726 25.752C38.342 25.8747 38.3113 25.9667 38.2806 26.028C38.2806 26.0893 38.2806 26.1507 38.2806 26.212C38.2806 26.2427 38.3113 26.3193 38.3726 26.442C38.434 26.5647 38.4646 26.6567 38.4646 26.718V27.132C38.71 27.3773 38.8326 27.546 38.8326 27.638C38.8326 27.8527 38.7406 27.9907 38.5566 28.052C38.71 28.2973 38.7866 28.558 38.7866 28.834C38.7866 28.834 38.572 29.0947 38.1426 29.616C38.5413 29.9227 38.7406 30.076 38.7406 30.076C38.7406 30.628 38.6793 31.042 38.5566 31.318C38.526 31.3793 38.4186 31.502 38.2346 31.686L38.0046 32.284C37.882 32.3147 37.744 32.514 37.5906 32.882C37.5906 32.882 37.4373 32.9127 37.1306 32.974L36.7626 33.434L36.6706 33.388C36.64 33.388 36.5326 33.4493 36.3486 33.572L36.0266 33.802C35.8733 33.802 35.6893 33.8633 35.4746 33.986L33.7266 34.354C33.696 34.354 33.65 34.308 33.5886 34.216L33.4506 33.986C33.1133 34.1393 32.9446 34.2313 32.9446 34.262C32.9446 34.262 32.9293 34.262 32.8986 34.262C32.8986 34.262 32.8986 34.2467 32.8986 34.216H32.8526C32.822 34.216 32.7453 34.3233 32.6226 34.538C32.5 34.7527 32.3926 34.86 32.3006 34.86C32.3006 34.86 32.27 34.8293 32.2086 34.768C32.178 34.7373 32.1166 34.722 32.0246 34.722C31.9633 34.722 31.8406 34.86 31.6566 35.136C31.718 35.228 31.7946 35.274 31.8866 35.274L32.0706 35.228C32.1013 35.228 32.1166 35.228 32.1166 35.228C32.1473 35.1973 32.178 35.182 32.2086 35.182L32.7606 35.596C32.8526 35.6267 32.96 35.6573 33.0826 35.688C33.236 35.7187 33.3893 35.7647 33.5426 35.826C33.5733 35.826 33.6346 35.8873 33.7266 36.01C33.8186 36.102 33.8953 36.148 33.9566 36.148C34.018 36.148 34.0793 36.1173 34.1406 36.056L34.3706 35.872C34.524 35.872 34.6466 35.8567 34.7386 35.826L34.8766 35.734V35.688C34.9073 35.6573 34.9993 35.642 35.1526 35.642C35.214 35.826 35.398 35.9027 35.7046 35.872L36.0266 35.826H36.4866C36.5173 35.826 36.5326 35.8413 36.5326 35.872C36.5633 35.872 36.594 35.872 36.6246 35.872C36.778 36.1173 36.9313 36.24 37.0846 36.24C37.146 36.24 37.2993 36.1633 37.5446 36.01C37.7593 35.8873 37.928 35.826 38.0506 35.826C38.3266 35.826 38.572 35.9793 38.7866 36.286C38.94 36.286 39.1546 36.332 39.4306 36.424C39.492 36.4853 39.538 36.608 39.5686 36.792C39.63 36.976 39.7066 37.0527 39.7986 37.022L39.9366 36.976H40.0746C40.0746 36.976 40.1973 37.0527 40.4426 37.206H40.7186C40.78 37.3287 40.8566 37.4513 40.9486 37.574C41.0406 37.6967 41.1173 37.8347 41.1786 37.988L41.0866 38.126V38.172C41.0866 38.3253 41.1633 38.586 41.3166 38.954L41.5006 39.368C41.5006 39.3987 41.5006 39.4447 41.5006 39.506C41.5006 39.5673 41.4853 39.6287 41.4546 39.69L41.4086 39.966C41.4086 39.9967 41.4086 40.012 41.4086 40.012C41.4393 40.0427 41.4546 40.0733 41.4546 40.104V40.242C41.4546 40.334 41.4393 40.3953 41.4086 40.426C41.3473 40.4873 41.3166 40.5487 41.3166 40.61C41.3166 40.6407 41.3933 40.6867 41.5466 40.748C41.3626 41.0547 41.2706 41.2847 41.2706 41.438C41.2706 41.438 41.3013 41.53 41.3626 41.714L41.4086 41.898C41.4086 42.0513 41.3473 42.2047 41.2246 42.358L40.9486 42.772C40.9486 42.8333 40.9486 42.8947 40.9486 42.956C40.9486 43.048 40.9333 43.1553 40.9026 43.278C40.8106 43.278 40.642 43.324 40.3966 43.416C40.182 43.508 40.0133 43.5387 39.8906 43.508C39.8906 43.6307 39.9366 43.7227 40.0286 43.784C39.906 44.2747 39.078 44.6887 37.5446 45.026C37.4833 45.026 37.4066 45.072 37.3146 45.164C37.192 45.2253 37.1153 45.256 37.0846 45.256L36.7166 45.21C36.6246 45.1793 36.548 45.164 36.4866 45.164C36.4253 45.164 36.364 45.164 36.3026 45.164L36.0266 45.21C35.9346 45.2407 35.8426 45.256 35.7506 45.256L35.5206 45.44C35.398 45.4707 35.2446 45.486 35.0606 45.486C34.9073 45.5167 34.754 45.532 34.6006 45.532L34.0026 45.302C33.88 45.578 33.7726 45.716 33.6806 45.716L33.3586 45.67L32.9906 45.578C32.9293 45.578 32.868 45.578 32.8066 45.578C32.7453 45.6087 32.684 45.6393 32.6226 45.67L32.3006 45.762ZM38.5566 20.968C38.618 20.9067 38.6946 20.8607 38.7866 20.83C38.664 20.7073 38.572 20.646 38.5106 20.646H38.4646L38.4186 20.83L38.5566 20.968ZM31.6566 21.382L31.7026 21.29C31.7026 21.29 31.6413 21.2593 31.5186 21.198L31.4266 21.29L31.6566 21.382ZM35.8886 21.566L36.1646 21.52V21.336C36.1646 21.3053 36.088 21.2747 35.9346 21.244L35.8886 21.566ZM31.7486 22.072V22.026C31.7486 21.934 31.7026 21.888 31.6106 21.888L31.4726 21.934C31.534 22.026 31.6106 22.072 31.7026 22.072H31.7486ZM29.3106 22.67C29.372 22.6393 29.418 22.6087 29.4486 22.578C29.4793 22.5473 29.51 22.5167 29.5406 22.486L29.4486 22.348L29.2186 22.394V22.532L29.3106 22.67ZM32.6226 31.134C32.592 31.1033 32.5766 31.0267 32.5766 30.904C32.5766 30.6587 32.73 30.536 33.0366 30.536C33.1593 30.536 33.42 30.6433 33.8186 30.858C33.8493 30.7967 33.9566 30.674 34.1406 30.49C34.1713 30.5207 34.1866 30.5973 34.1866 30.72C34.248 30.72 34.3706 30.7507 34.5546 30.812V30.72L34.5086 30.536C34.5086 30.5053 34.4933 30.49 34.4626 30.49C34.432 30.4593 34.4166 30.4287 34.4166 30.398C34.4166 30.3367 34.4626 30.214 34.5546 30.03C34.6466 29.846 34.6926 29.7233 34.6926 29.662C34.6926 29.662 34.662 29.6007 34.6006 29.478C34.5393 29.4167 34.5086 29.3707 34.5086 29.34C34.754 28.9107 34.8766 28.604 34.8766 28.42V28.374C34.6313 28.3127 34.5086 28.098 34.5086 27.73C34.5086 27.6993 34.5546 27.6227 34.6466 27.5C34.984 27.5 35.1526 27.454 35.1526 27.362C35.122 27.3313 34.9533 27.316 34.6466 27.316C34.432 27.316 34.3246 27.2087 34.3246 26.994C34.3246 26.9327 34.3706 26.7947 34.4626 26.58C34.5546 26.3347 34.6006 26.1813 34.6006 26.12C34.6006 26.0587 34.5546 25.9667 34.4626 25.844C34.34 25.7213 34.2786 25.6447 34.2786 25.614C34.2786 25.5527 34.294 25.5067 34.3246 25.476C34.3553 25.4147 34.386 25.3533 34.4166 25.292L34.5086 25.062L34.4626 24.234C34.0946 24.0193 33.9566 23.7127 34.0486 23.314C33.9873 23.2833 33.9106 23.2373 33.8186 23.176C33.7573 23.1147 33.6806 23.0533 33.5886 22.992L33.5426 22.762C33.1746 22.9153 32.7913 22.992 32.3926 22.992C32.27 22.992 32.178 23.038 32.1166 23.13C32.1166 23.3753 32.0553 23.6053 31.9326 23.82L31.7026 24.234L31.7486 25.476L31.8406 25.614C31.8713 25.6447 31.8866 25.6907 31.8866 25.752C31.8866 25.7827 31.856 25.8593 31.7946 25.982C31.9173 25.982 31.9786 26.2427 31.9786 26.764C31.9786 26.8253 31.948 26.8867 31.8866 26.948C31.8253 27.0707 31.7946 27.132 31.7946 27.132C31.8253 27.1627 31.8406 27.2547 31.8406 27.408L31.7486 27.592C31.7486 27.6227 31.7946 27.7147 31.8866 27.868C31.948 28.052 31.9786 28.19 31.9786 28.282C31.9786 28.5273 31.902 28.834 31.7486 29.202C31.9326 29.3247 32.0246 29.432 32.0246 29.524C32.0246 29.616 31.9786 29.7387 31.8866 29.892C32.0706 29.9533 32.224 30.1373 32.3466 30.444L32.6226 31.134ZM31.1046 31.502H31.4266L31.5646 31.364V30.996C31.442 30.8733 31.304 30.812 31.1506 30.812C31.0586 31.0267 31.0126 31.1033 31.0126 31.042L31.0586 31.272C31.0586 31.3027 31.0586 31.3487 31.0586 31.41C31.0893 31.4407 31.1046 31.4713 31.1046 31.502ZM27.9766 31.272C27.9766 31.272 27.9766 31.2873 27.9766 31.318V31.272ZM37.1306 32.192C37.2226 32.192 37.2686 32.146 37.2686 32.054L37.2226 31.916C37.1306 31.916 37.0846 31.9773 37.0846 32.1V32.192H37.1306ZM31.6566 36.654L31.7026 36.424L31.4266 36.378L31.3806 36.608L31.6566 36.654ZM34.5546 37.758V37.712C34.5546 37.5893 34.5086 37.528 34.4166 37.528L34.2786 37.62C34.34 37.712 34.4166 37.758 34.5086 37.758H34.5546ZM29.9086 38.586V38.54C29.9086 38.448 29.8626 38.402 29.7706 38.402L29.6326 38.448C29.694 38.54 29.7706 38.586 29.8626 38.586H29.9086ZM33.4506 42.312L33.4046 42.128V42.082C33.4966 41.99 33.5886 41.944 33.6806 41.944C33.8033 41.944 33.9106 42.0207 34.0026 42.174C34.0333 42.2047 34.1253 42.22 34.2786 42.22H34.5546C34.8306 42.22 34.984 42.174 35.0146 42.082C35.0453 42.0207 35.076 41.9747 35.1066 41.944C35.1373 41.9133 35.168 41.8827 35.1986 41.852L35.9346 42.174C36.0266 42.0513 36.18 41.898 36.3946 41.714L36.6706 41.898C36.7013 41.7753 36.8546 41.6833 37.1306 41.622C37.4066 41.53 37.5753 41.4533 37.6366 41.392L37.7286 41.484L37.7746 41.07C37.56 41.0393 37.422 40.8247 37.3606 40.426C37.33 40.058 37.238 39.874 37.0846 39.874C37.054 39.874 37.0233 39.8893 36.9926 39.92C36.962 39.9507 36.916 39.966 36.8546 39.966L36.6246 40.012C36.594 40.012 36.4866 39.9813 36.3026 39.92C36.1186 39.8587 35.996 39.828 35.9346 39.828C35.904 39.828 35.8733 39.8433 35.8426 39.874C35.812 39.9047 35.7813 39.92 35.7506 39.92L35.6126 39.966H35.5666L35.4746 39.92C35.4746 39.8587 35.49 39.7973 35.5206 39.736C35.5206 39.644 35.4286 39.598 35.2446 39.598L35.3366 39.506L34.7846 39.782C34.662 39.782 34.616 39.7207 34.6466 39.598L34.2326 39.69L33.9106 39.598C33.8186 39.5673 33.742 39.5367 33.6806 39.506C33.6193 39.506 33.558 39.506 33.4966 39.506L33.3586 39.644C32.96 39.7053 32.73 39.736 32.6686 39.736C32.638 39.7667 32.5 39.9507 32.2546 40.288V40.38L32.2086 40.748C32.2086 40.8093 32.1933 40.8553 32.1626 40.886C32.1626 40.9473 32.1626 40.9933 32.1626 41.024C32.1626 41.0853 32.178 41.1313 32.2086 41.162C32.3006 41.3153 32.3926 41.4687 32.4846 41.622C32.6073 41.806 32.776 41.898 32.9906 41.898C33.1133 41.898 33.1746 41.9593 33.1746 42.082V42.174C33.236 42.266 33.328 42.312 33.4506 42.312ZM39.5226 40.15C39.584 40.15 39.676 40.0887 39.7986 39.966C39.7066 39.874 39.4766 39.7973 39.1086 39.736L38.9706 39.552C38.8173 39.644 38.7406 39.7667 38.7406 39.92C38.7406 39.9507 38.7713 39.9967 38.8326 40.058L39.5226 40.15ZM34.9686 44.06C35.03 44.0293 35.0913 43.9833 35.1526 43.922C35.0913 43.7993 35.03 43.7073 34.9686 43.646V44.06ZM44.9524 39.598C44.7991 39.6287 44.6918 39.5673 44.6304 39.414C44.5998 39.1687 44.5384 39.0153 44.4464 38.954C44.5384 38.8927 44.6151 38.816 44.6764 38.724V38.494C44.7071 38.3407 44.7378 38.2487 44.7684 38.218C44.7071 38.1567 44.6458 38.0953 44.5844 38.034C44.5538 37.9727 44.5078 37.896 44.4464 37.804V37.206C44.4464 36.9913 44.4924 36.838 44.5844 36.746C44.5538 36.6847 44.5384 36.5927 44.5384 36.47C44.5384 36.3473 44.5231 36.2093 44.4924 36.056L44.4464 35.596L44.3544 35.642C44.3544 35.6727 44.3391 35.688 44.3084 35.688C44.3084 35.688 44.2931 35.688 44.2624 35.688C44.2624 35.688 44.2624 35.6727 44.2624 35.642C44.2624 35.458 44.3084 35.32 44.4004 35.228V34.998C44.4004 34.722 44.4004 34.5073 44.4004 34.354C44.4311 34.2007 44.4464 34.1087 44.4464 34.078L44.4004 33.94C44.3698 33.8787 44.3544 33.802 44.3544 33.71C44.4464 33.5567 44.4924 33.2193 44.4924 32.698V32.56C44.4924 32.4987 44.4924 32.4067 44.4924 32.284C44.4924 32.1613 44.5078 32.008 44.5384 31.824C44.5998 31.3027 44.6151 31.042 44.5844 31.042C44.5538 30.9807 44.5078 30.904 44.4464 30.812C44.4158 30.6893 44.3698 30.5667 44.3084 30.444L44.2624 30.076C44.5078 29.892 44.5998 29.5853 44.5384 29.156L44.3084 28.742C44.3084 28.6807 44.3084 28.5887 44.3084 28.466C44.3084 28.3433 44.2931 28.2053 44.2624 28.052C44.2318 28.0213 44.1858 27.8987 44.1244 27.684C44.0938 27.6533 44.1244 27.5307 44.2164 27.316L44.3084 26.948L44.2164 26.304C44.1858 26.12 44.1551 25.982 44.1244 25.89C44.0938 25.7673 44.0784 25.6907 44.0784 25.66C44.0784 25.66 44.0784 25.5373 44.0784 25.292V25.246L44.1704 25.062H44.2164L44.3544 24.97C44.3238 24.9393 44.3084 24.9087 44.3084 24.878L44.4004 24.648L44.4924 24.51C44.4924 24.4793 44.4771 24.464 44.4464 24.464C44.3544 24.464 44.2778 24.4947 44.2164 24.556C44.2778 24.372 44.3238 24.0807 44.3544 23.682C44.5691 23.682 44.6764 23.5747 44.6764 23.36C44.6764 23.2067 44.6151 23.13 44.4924 23.13C44.4311 23.13 44.3544 23.176 44.2624 23.268C44.2318 23.1453 44.1858 23.0227 44.1244 22.9C44.0938 22.7467 44.0631 22.5933 44.0324 22.44L44.0784 22.302V22.21C44.0478 22.118 44.0324 22.0107 44.0324 21.888C44.0324 21.7347 44.0324 21.5813 44.0324 21.428C44.0631 21.3053 44.1704 21.1367 44.3544 20.922C44.3544 20.922 44.2624 20.8913 44.0784 20.83V20.508C44.0784 20.3853 44.0784 20.278 44.0784 20.186C44.0784 20.0633 44.0631 19.9407 44.0324 19.818L43.8944 19.45C43.8944 19.4193 43.9404 19.312 44.0324 19.128C44.1244 18.944 44.1704 18.8213 44.1704 18.76C44.1091 18.7293 44.3084 18.714 44.7684 18.714C44.8604 18.714 44.9218 18.7753 44.9524 18.898C44.9831 19.0207 45.0751 19.082 45.2284 19.082C45.2898 19.082 45.3664 19.036 45.4584 18.944L46.0104 18.898C46.0411 18.898 46.0718 18.9287 46.1024 18.99C46.1638 19.0513 46.3018 19.1587 46.5164 19.312C46.6084 19.312 46.6698 19.2047 46.7004 18.99L46.7464 18.898C46.7464 18.8673 46.7771 18.852 46.8384 18.852L46.9764 18.898C47.0378 18.898 47.0684 18.898 47.0684 18.898L47.3904 18.806C47.4518 18.7753 47.5131 18.76 47.5744 18.76C47.6358 18.76 47.6818 18.76 47.7124 18.76L47.9424 18.852C48.0651 18.9133 48.1264 18.944 48.1264 18.944C48.2491 18.944 48.3871 18.8213 48.5404 18.576C48.7244 18.7293 48.8318 18.9747 48.8624 19.312C48.8931 19.6187 48.9851 19.818 49.1384 19.91C49.0464 19.9407 48.9391 20.048 48.8164 20.232V20.508C48.6938 20.7227 48.6324 20.83 48.6324 20.83C48.6324 20.922 48.6938 21.0293 48.8164 21.152C48.8471 21.152 48.8778 21.152 48.9084 21.152C48.9698 21.1213 49.0158 21.106 49.0464 21.106C49.1998 21.106 49.4144 21.152 49.6904 21.244C49.8131 21.2133 49.8744 21.152 49.8744 21.06C49.8131 20.7227 49.7671 20.554 49.7364 20.554L49.7824 20.324L49.9204 20.048C49.9204 19.9253 49.9818 19.7567 50.1044 19.542C50.2271 19.4193 50.4111 19.358 50.6564 19.358C50.7791 19.3273 50.8558 19.22 50.8864 19.036L51.0244 19.082C51.1164 19.082 51.2084 19.0053 51.3004 18.852C51.3924 18.6987 51.4844 18.622 51.5764 18.622C51.7298 18.622 51.8984 18.714 52.0824 18.898C52.1438 18.714 52.2358 18.5453 52.3584 18.392C52.3278 18.3613 52.3124 18.346 52.3124 18.346H52.3584V18.392C52.3891 18.4227 52.6191 18.5147 53.0484 18.668C53.1404 18.6987 53.2478 18.7293 53.3704 18.76C53.4931 18.76 53.6158 18.76 53.7384 18.76C54.2291 18.76 54.5204 18.8213 54.6124 18.944L54.7964 19.266C55.3178 19.7873 55.6398 20.3087 55.7624 20.83V21.014C55.7624 21.0753 55.7624 21.152 55.7624 21.244C55.7624 21.336 55.7471 21.428 55.7164 21.52L55.8544 21.842C55.8544 22.1487 55.8544 22.4093 55.8544 22.624C55.8544 22.808 55.8391 22.9307 55.8084 22.992L55.3944 23.406C55.4558 23.5287 55.5478 23.6053 55.6704 23.636L55.9464 23.59V23.636C55.9464 23.6667 55.9311 23.7127 55.9004 23.774C55.9004 23.8353 55.8851 23.912 55.8544 24.004C55.8851 23.9733 55.9158 24.05 55.9464 24.234C55.8851 24.326 55.8851 24.5867 55.9464 25.016C55.9464 25.2613 55.9004 25.6907 55.8084 26.304C55.7164 26.5187 55.6704 26.856 55.6704 27.316C55.6704 27.3773 55.7471 27.454 55.9004 27.546C55.9924 27.6073 56.0691 28.006 56.1304 28.742L55.8544 28.88L56.1304 30.03C56.0998 30.122 56.0691 30.2293 56.0384 30.352C56.0078 30.4747 55.9771 30.6127 55.9464 30.766L56.1304 31.594C56.1918 31.87 56.2224 32.0847 56.2224 32.238C56.2531 32.3607 56.2684 32.4373 56.2684 32.468C56.2684 32.5907 56.2071 32.7287 56.0844 32.882C56.0844 32.882 56.0384 32.9127 55.9464 32.974C55.8544 33.0047 55.8084 33.0353 55.8084 33.066C55.8084 33.0967 55.8544 33.1427 55.9464 33.204C56.0078 33.2653 56.0384 33.342 56.0384 33.434C56.0384 33.4953 56.0078 33.618 55.9464 33.802C56.1304 33.894 56.2224 34.032 56.2224 34.216C56.1304 34.5227 56.0844 34.9367 56.0844 35.458C56.0231 35.4273 55.9311 35.412 55.8084 35.412C55.6244 35.412 55.5324 35.5347 55.5324 35.78C55.5324 36.3013 55.7318 36.5773 56.1304 36.608L55.9464 37.114L56.4064 37.39L56.3144 37.896L56.2224 38.448C56.2838 38.632 56.3144 38.7547 56.3144 38.816C56.3144 39.0613 56.1611 39.23 55.8544 39.322L55.5324 39.046C55.4404 39.0153 55.3024 39 55.1184 39L54.9344 39.092C54.8731 39.1227 54.8271 39.138 54.7964 39.138C54.7658 39.1687 54.7351 39.184 54.7044 39.184L53.9684 39.138L53.2324 39.046L52.9564 39.138L52.6344 39.23H52.4044C52.2818 39.23 52.1591 39.2147 52.0364 39.184C51.9138 39.184 51.7758 39.1687 51.6224 39.138C51.5918 39.138 51.5764 39.092 51.5764 39L51.7144 38.724C51.7758 38.54 51.8064 38.448 51.8064 38.448C51.7144 38.356 51.6531 38.2333 51.6224 38.08C51.5918 38.0493 51.5151 38.0493 51.3924 38.08V37.758L51.4844 37.574C51.5151 37.5127 51.5304 37.4513 51.5304 37.39C51.5304 37.2673 51.5304 37.114 51.5304 36.93C51.5611 36.7153 51.5918 36.4547 51.6224 36.148C51.9291 35.7493 52.0824 35.4887 52.0824 35.366C52.0824 35.274 52.0211 35.2127 51.8984 35.182C51.6838 35.09 51.6991 34.9673 51.9444 34.814C51.9138 34.7833 51.8678 34.7373 51.8064 34.676C51.7758 34.6147 51.6991 34.5533 51.5764 34.492L51.5304 32.836C51.4691 32.836 51.4384 32.8053 51.4384 32.744V31.732C51.4384 31.1493 51.4538 30.8273 51.4844 30.766L51.7144 30.536C51.8371 30.4133 51.8984 30.3213 51.8984 30.26L51.3924 29.938C51.3924 29.754 51.3771 29.6007 51.3464 29.478L51.5764 27.868C51.5151 27.8067 51.4384 27.6533 51.3464 27.408L51.2084 26.672C51.2084 26.6107 51.2698 26.5187 51.3924 26.396C51.5458 26.2427 51.5918 26.1507 51.5304 26.12L51.3924 25.568C51.3004 25.292 51.2544 25.1233 51.2544 25.062C51.2544 24.878 51.3618 24.694 51.5764 24.51V24.188C51.5151 24.1267 51.3771 24.096 51.1624 24.096L51.2084 23.498V23.36C51.2084 22.9613 51.0704 22.7927 50.7944 22.854C50.7638 22.854 50.6411 22.9307 50.4264 23.084C50.1811 23.2373 50.0584 23.314 50.0584 23.314C49.9664 23.2527 49.8284 23.2067 49.6444 23.176C49.4911 23.176 49.4298 23.36 49.4604 23.728C49.3991 23.7893 49.3224 23.866 49.2304 23.958C49.1691 24.05 49.0924 24.1573 49.0004 24.28L48.9544 25.154C48.9544 25.2153 48.9391 25.2767 48.9084 25.338L48.8164 25.522C48.8164 25.6753 48.8318 25.798 48.8624 25.89C48.9238 25.9513 48.9698 26.0127 49.0004 26.074C49.0004 26.1047 48.9698 26.1813 48.9084 26.304C48.8471 26.4267 48.8164 26.5033 48.8164 26.534L48.9544 26.718C49.0464 26.81 49.0771 26.948 49.0464 27.132L48.9084 27.316V27.546C48.9084 27.6687 48.9544 27.8067 49.0464 27.96C49.1384 28.0827 49.1844 28.1593 49.1844 28.19L49.2304 30.03L49.1384 30.352C49.0464 30.536 49.0004 30.6893 49.0004 30.812C49.0004 30.904 49.0464 31.0267 49.1384 31.18C49.1078 31.2413 49.0924 31.3793 49.0924 31.594L49.2304 31.916C49.2304 31.916 49.1998 32.1 49.1384 32.468C49.1078 32.8053 49.0924 33.0507 49.0924 33.204L49.1384 34.4C49.1998 34.4 49.2304 34.4307 49.2304 34.492L49.2764 36.148C49.2764 36.148 49.1538 36.3013 48.9084 36.608C48.8778 36.6387 48.9084 36.6847 49.0004 36.746C49.2151 36.8073 49.3378 36.8533 49.3684 36.884V36.976C49.3684 37.068 49.3224 37.2827 49.2304 37.62C49.2611 37.712 49.2764 37.942 49.2764 38.31C49.2151 38.6167 49.0771 38.7853 48.8624 38.816C48.9238 38.8467 49.0004 38.908 49.0924 39C49.1844 39.0613 49.2764 39.1533 49.3684 39.276C49.3991 39.3987 49.3378 39.46 49.1844 39.46H48.7244C48.6938 39.4907 48.6171 39.46 48.4944 39.368C48.4024 39.2453 48.2798 39.2147 48.1264 39.276L47.5744 39.414L47.1144 39.322L46.5624 39.184C46.5318 39.184 46.4858 39.1993 46.4244 39.23C46.3938 39.2607 46.3324 39.2913 46.2404 39.322L45.9184 39.414C45.8571 39.414 45.7038 39.322 45.4584 39.138C45.3358 39.1993 45.2591 39.2913 45.2284 39.414C45.1978 39.5367 45.1058 39.598 44.9524 39.598ZM54.4284 20.6L54.7504 20.186L54.5204 20.324H54.2904C54.2904 20.4467 54.3364 20.5387 54.4284 20.6ZM47.5744 21.29C47.6051 21.2593 47.5591 21.198 47.4364 21.106L47.3444 21.198C47.3751 21.2287 47.4058 21.244 47.4364 21.244C47.4978 21.244 47.5438 21.2593 47.5744 21.29ZM47.6664 21.98C47.6664 21.9187 47.6358 21.8573 47.5744 21.796C47.5438 21.7347 47.4824 21.75 47.3904 21.842C47.3904 21.934 47.4824 21.98 47.6664 21.98ZM52.5424 23.084L52.9564 23.038C53.0791 23.0073 53.2018 22.9307 53.3244 22.808C53.4471 22.6853 53.5084 22.5627 53.5084 22.44C53.4778 22.1333 53.3398 21.98 53.0944 21.98C52.9718 21.98 52.8184 22.0873 52.6344 22.302C52.4504 22.486 52.3584 22.6547 52.3584 22.808C52.3584 22.8693 52.4198 22.9613 52.5424 23.084ZM46.8384 25.89L46.9764 25.752C46.9764 25.752 46.9458 25.7213 46.8844 25.66L46.8384 25.89ZM52.8184 32.192C52.8798 32.192 52.9411 32.1613 53.0024 32.1C53.0638 32.0387 53.0484 31.9773 52.9564 31.916C52.8644 31.916 52.8184 32.008 52.8184 32.192ZM55.1644 34.952C55.1644 34.8907 55.1338 34.8293 55.0724 34.768C55.0418 34.7067 54.9804 34.722 54.8884 34.814C54.8884 34.906 54.9804 34.952 55.1644 34.952ZM46.2864 36.654C46.2864 36.5313 46.2864 36.4087 46.2864 36.286C46.3171 36.1633 46.3478 36.0407 46.3784 35.918C46.1638 35.7033 45.9644 35.6113 45.7804 35.642L45.5964 35.734L45.7344 36.194L46.2864 36.654ZM45.5044 38.448C45.5351 38.3867 45.5198 38.3253 45.4584 38.264C45.4278 38.2333 45.3511 38.2487 45.2284 38.31C45.2898 38.402 45.3818 38.448 45.5044 38.448ZM78.3711 40.334C78.3711 40.334 78.2944 40.2727 78.1411 40.15C78.0184 40.0887 77.8804 40.058 77.7271 40.058L77.4971 40.15C77.4051 40.1807 77.3131 40.196 77.2211 40.196L76.3931 40.104C76.3624 40.0427 76.2704 39.9967 76.1171 39.966C74.9824 39.8433 74.4151 39.736 74.4151 39.644C74.4151 39.644 74.4457 39.6133 74.5071 39.552L74.7831 39.276L74.7371 38.862C74.7371 38.862 74.7677 38.8007 74.8291 38.678C74.8904 38.6167 74.9211 38.5707 74.9211 38.54L74.6451 38.126C74.5224 38.126 74.4611 38.2333 74.4611 38.448C74.4611 38.54 74.4457 38.6013 74.4151 38.632C74.3844 38.6013 74.3537 38.586 74.3231 38.586C74.2311 38.586 74.1237 38.6933 74.0011 38.908C73.9091 39.0307 73.8324 39.092 73.7711 39.092C73.6484 39.092 73.4184 38.9693 73.0811 38.724L72.7131 38.08C72.6517 38.0493 72.5444 37.9573 72.3911 37.804L71.9311 37.206C71.9004 37.1447 71.8697 37.0833 71.8391 37.022C71.8084 36.93 71.7624 36.8227 71.7011 36.7C71.4864 36.332 71.4557 36.0713 71.6091 35.918C71.5171 35.8873 71.3637 35.7647 71.1491 35.55C71.1797 35.4887 71.1951 35.3507 71.1951 35.136C71.1951 35.0747 71.1797 34.9827 71.1491 34.86C71.1491 34.7373 71.1337 34.6147 71.1031 34.492L71.0111 34.032C71.0111 34.0013 71.0877 33.8327 71.2411 33.526C71.0877 33.4647 70.9804 33.4033 70.9191 33.342C70.9804 33.2807 71.0571 33.066 71.1491 32.698C71.1797 32.606 71.1951 32.4373 71.1951 32.192C71.1951 32.192 71.1644 32.1307 71.1031 32.008C71.0111 31.9467 70.9651 31.8853 70.9651 31.824C70.9651 31.548 71.0264 31.2107 71.1491 30.812L70.8731 30.674L70.8271 29.524C70.8577 29.5547 70.8884 29.2173 70.9191 28.512C70.9191 28.512 70.9344 28.466 70.9651 28.374C71.0264 28.2513 71.0571 28.1747 71.0571 28.144C70.9344 28.0213 70.8577 27.8833 70.8271 27.73C70.8271 27.3313 70.8731 26.902 70.9651 26.442C71.0571 25.9207 71.1031 25.5833 71.1031 25.43C71.1031 25.0927 71.0111 24.7707 70.8271 24.464L70.9191 23.406C71.0111 23.406 71.1031 23.3447 71.1951 23.222V23.038C71.0724 22.9767 70.9957 22.946 70.9651 22.946L70.6431 23.038C70.6737 22.7313 70.6891 22.4247 70.6891 22.118C70.6891 21.7807 70.6891 21.4127 70.6891 21.014C70.6277 20.922 70.5664 20.8147 70.5051 20.692C70.5051 20.5387 70.5511 20.1707 70.6431 19.588L70.5511 19.22C70.5817 18.9133 70.6124 18.7753 70.6431 18.806C70.6124 18.714 70.5817 18.5453 70.5511 18.3C70.5204 17.9627 70.4744 17.7787 70.4131 17.748C70.4131 17.6253 70.5664 17.4107 70.8731 17.104C70.8117 16.9507 70.6891 16.9047 70.5051 16.966C70.5051 16.8433 70.5511 16.6747 70.6431 16.46C70.3977 16.2147 70.2751 16.0307 70.2751 15.908C70.2751 15.816 70.3211 15.6627 70.4131 15.448C70.4744 15.3867 70.6124 15.356 70.8271 15.356C70.7964 15.356 71.0571 15.4633 71.6091 15.678C71.6397 15.6473 71.6551 15.586 71.6551 15.494C71.6551 15.218 71.5171 15.08 71.2411 15.08L71.0111 15.218C70.9191 15.218 70.7197 15.1107 70.4131 14.896C70.4437 14.62 70.4591 14.3593 70.4591 14.114C70.4897 13.838 70.4897 13.5773 70.4591 13.332L70.2751 12.872V12.734C70.2751 12.3353 70.4131 12.136 70.6891 12.136L70.9191 12.228C71.1031 12.2893 71.1951 12.32 71.1951 12.32L71.4711 12.182C71.6551 12.1207 71.7471 12.09 71.7471 12.09L71.9771 12.182C72.0997 12.2433 72.1611 12.274 72.1611 12.274L72.3451 12.228H72.4831L72.8051 12.32C72.8971 12.3507 72.9584 12.3813 72.9891 12.412C73.0504 12.4427 73.0964 12.458 73.1271 12.458C73.1884 12.458 73.4031 12.366 73.7711 12.182C74.1391 12.0287 74.3384 11.952 74.3691 11.952C74.4304 11.9827 74.4917 12.0133 74.5531 12.044C74.6451 12.044 74.7524 12.0593 74.8751 12.09C74.9364 12.09 74.9977 12.09 75.0591 12.09C75.1204 12.0593 75.1817 12.0287 75.2431 11.998L75.5651 12.366L75.3351 12.918C75.3657 13.2247 75.3811 13.424 75.3811 13.516C75.3811 13.608 75.3964 13.6233 75.4271 13.562C75.4271 13.654 75.3657 13.746 75.2431 13.838L75.1511 14.022L75.3811 14.436C75.4731 14.6507 75.5191 14.896 75.5191 15.172C75.4884 15.2947 75.4731 15.4327 75.4731 15.586C75.4731 15.7087 75.4731 15.8773 75.4731 16.092C75.1051 16.3067 74.9211 16.506 74.9211 16.69C74.9211 16.782 75.0284 16.782 75.2431 16.69C75.3964 16.8433 75.4731 16.966 75.4731 17.058C75.4731 17.1193 75.4271 17.2727 75.3351 17.518C75.2431 17.794 75.1971 17.9627 75.1971 18.024C75.2584 18.208 75.4271 18.438 75.7031 18.714C75.5804 18.8367 75.5344 19.0207 75.5651 19.266L75.6571 19.864C75.6571 19.864 75.6264 19.9407 75.5651 20.094L75.6111 20.14C75.6417 20.1707 75.6571 20.232 75.6571 20.324V20.738L75.2891 20.876C75.3197 20.9987 75.4271 21.0753 75.6111 21.106C75.7031 21.1673 75.7644 21.2747 75.7951 21.428C75.7951 21.612 75.7184 21.75 75.5651 21.842L75.6111 22.026V22.946L75.3811 22.9C75.3504 22.9307 75.3044 22.9767 75.2431 23.038C75.2124 23.0993 75.1511 23.176 75.0591 23.268C74.9364 23.3907 74.8751 23.4673 74.8751 23.498L75.0131 23.728C75.1051 23.636 75.1204 23.544 75.0591 23.452C75.1511 23.452 75.2891 23.406 75.4731 23.314C75.6571 23.2527 75.7797 23.2373 75.8411 23.268C75.7797 23.452 75.7491 23.59 75.7491 23.682V23.774C75.5651 23.8967 75.4731 24.0653 75.4731 24.28C75.5344 24.4027 75.6724 24.5407 75.8871 24.694C75.7644 25.0007 75.7184 25.2613 75.7491 25.476L75.9331 26.258C75.9331 26.2887 75.9331 26.35 75.9331 26.442C75.9331 26.5033 75.9177 26.58 75.8871 26.672L75.9791 26.718C75.9484 26.718 75.9177 26.764 75.8871 26.856C75.9791 27.0093 76.0097 27.1167 75.9791 27.178L75.7951 27.546C75.8871 27.9447 75.9331 28.5427 75.9331 29.34C75.9024 29.3707 75.8871 29.4013 75.8871 29.432C75.8564 29.524 75.8257 29.57 75.7951 29.57C75.7644 29.6007 75.7337 29.6467 75.7031 29.708C75.6417 29.8613 75.6264 30.1067 75.6571 30.444L75.8871 30.628V30.72C75.8871 30.8427 75.8717 30.9653 75.8411 31.088C75.8104 31.2107 75.8104 31.4407 75.8411 31.778L76.0711 32.422C75.8564 32.5447 75.7491 32.652 75.7491 32.744C75.7491 32.7747 75.7644 32.8207 75.7951 32.882C75.8257 32.9127 75.8564 32.9587 75.8871 33.02L75.9791 33.296V33.342C75.9791 33.4033 75.9024 33.664 75.7491 34.124C75.8717 34.1853 75.9637 34.2467 76.0251 34.308C76.0864 34.492 76.2091 34.676 76.3931 34.86V35.09L76.3011 35.182C76.1784 35.1207 75.9637 34.952 75.6571 34.676H75.5651C75.5037 34.7373 75.4731 34.7833 75.4731 34.814C75.4731 34.9367 75.5651 35.0747 75.7491 35.228L76.1171 35.504C76.2704 35.5347 76.3777 35.55 76.4391 35.55C76.5004 35.55 76.5311 35.55 76.5311 35.55L76.9911 35.366C77.0217 35.6113 77.2977 35.8107 77.8191 35.964L77.9571 35.826L77.7271 35.596V35.412L78.2791 35.366C78.3404 35.366 78.4324 35.4273 78.5551 35.55C78.8311 35.366 78.9691 35.0747 78.9691 34.676H79.7511C80.0884 34.676 80.2264 34.4153 80.1651 33.894L80.3031 33.71C80.3031 33.6487 80.2417 33.6027 80.1191 33.572C79.9044 33.9707 79.8584 34.2313 79.9811 34.354L79.8431 34.492C79.5057 34.308 79.3371 34.1393 79.3371 33.986L79.6131 33.572C79.7051 33.388 79.7511 33.1733 79.7511 32.928C79.7511 32.836 79.7511 32.7287 79.7511 32.606C79.7511 32.4833 79.7204 32.3607 79.6591 32.238L79.8431 31.87L79.7971 31.824C79.7971 31.824 79.7204 31.8547 79.5671 31.916C79.4751 31.548 79.4291 31.3027 79.4291 31.18C79.4904 30.8733 79.5364 30.5667 79.5671 30.26C79.5977 29.9227 79.6284 29.6007 79.6591 29.294L79.6131 28.926L79.7051 28.88L79.6131 28.834C79.5824 28.8033 79.5977 28.7113 79.6591 28.558V28.466C79.6284 28.4353 79.5824 28.4047 79.5211 28.374C79.4904 28.3433 79.4444 28.2973 79.3831 28.236L79.6591 27.27C79.5977 27.2087 79.5211 27.178 79.4291 27.178H79.3371L79.2911 26.718L79.1991 26.35C79.2297 26.2273 79.2451 26.1047 79.2451 25.982C79.2757 25.8287 79.2911 25.6447 79.2911 25.43C79.4444 25.338 79.6284 25.1693 79.8431 24.924C79.7817 24.8627 79.7357 24.832 79.7051 24.832L79.4751 24.924C79.4444 24.924 79.3984 24.878 79.3371 24.786C79.2451 24.5407 79.1991 24.3107 79.1991 24.096L79.2451 23.958C79.2451 23.9273 79.2451 23.912 79.2451 23.912C79.2757 23.912 79.2911 23.8967 79.2911 23.866L79.2451 23.038C79.3064 22.9153 79.3371 22.854 79.3371 22.854C79.3371 22.762 79.3064 22.67 79.2451 22.578L79.1071 22.348C79.1071 22.1947 79.1684 22.0413 79.2911 21.888C79.4444 21.888 79.5824 22.026 79.7051 22.302H79.8891L79.9351 22.164C79.9351 21.888 79.8124 21.796 79.5671 21.888L79.6131 21.704C79.5517 21.5813 79.4291 21.5047 79.2451 21.474L79.1071 21.014C79.1377 20.9527 79.1531 20.8607 79.1531 20.738C79.1837 20.5847 79.1837 20.4007 79.1531 20.186L79.1071 19.818C79.4444 19.542 79.6131 19.312 79.6131 19.128C79.6131 19.1587 79.4751 18.944 79.1991 18.484C79.1991 18.4533 79.1837 18.438 79.1531 18.438C79.1531 18.4073 79.1531 18.3767 79.1531 18.346C79.1531 18.254 79.1991 18.116 79.2911 17.932C79.2911 17.932 79.2297 17.7633 79.1071 17.426L79.1991 16.69L79.1071 16.368C79.0457 16.184 79.0151 16.092 79.0151 16.092C79.0151 16.0613 79.0917 15.9233 79.2451 15.678L79.1531 15.172C79.1837 15.1413 79.2144 15.1107 79.2451 15.08C79.2757 15.0187 79.3064 14.9727 79.3371 14.942C79.3677 14.8807 79.3831 14.7887 79.3831 14.666C79.2911 14.482 79.1377 14.068 78.9231 13.424C78.8924 13.3013 78.8617 13.1633 78.8311 13.01C78.8311 12.8567 78.8311 12.6727 78.8311 12.458L78.6471 12.09L78.7851 11.952L79.7511 11.814C79.9044 11.814 80.0271 11.8907 80.1191 12.044L80.2571 11.998L80.4411 11.952C80.5024 11.952 80.6404 11.9673 80.8551 11.998C81.0697 12.0287 81.3457 12.0747 81.6831 12.136L81.9131 12.228C81.9744 12.228 82.0817 12.1053 82.2351 11.86H82.6951C82.8484 11.8293 83.0017 11.7987 83.1551 11.768C83.3084 11.7373 83.4771 11.7067 83.6611 11.676C83.9677 11.676 84.1364 11.7373 84.1671 11.86C84.1977 11.9827 84.1977 12.09 84.1671 12.182C84.1671 12.2433 84.1671 12.2893 84.1671 12.32L84.0751 12.596V12.78C84.0751 12.872 84.0751 12.9793 84.0751 13.102C84.0751 13.2247 84.0904 13.378 84.1211 13.562L83.9371 13.746C83.9371 13.746 83.9677 13.838 84.0291 14.022C84.0597 14.1447 83.9831 14.252 83.7991 14.344C84.0751 14.4053 84.1671 14.6507 84.0751 15.08L83.9371 15.218C83.9984 15.3713 84.0444 15.5553 84.0751 15.77C84.1057 15.954 84.1364 16.1687 84.1671 16.414C84.1671 16.3527 84.1517 16.414 84.1211 16.598C84.0904 16.782 84.0444 17.0887 83.9831 17.518C84.0444 17.794 84.0904 18.1007 84.1211 18.438C84.1211 18.438 84.0904 18.4993 84.0291 18.622C83.9371 18.7447 83.8911 18.8213 83.8911 18.852C83.8911 18.9133 83.9831 19.0207 84.1671 19.174L84.3051 19.864L84.4431 23.314C84.3204 23.4367 84.2744 23.59 84.3051 23.774C84.3051 23.774 84.2744 23.8047 84.2131 23.866C84.1824 23.9273 84.1671 23.9887 84.1671 24.05L84.3511 24.372C84.4124 24.4947 84.4431 24.5867 84.4431 24.648C84.4737 24.6787 84.4891 24.7093 84.4891 24.74L84.3511 25.016C84.2591 25.1387 84.2131 25.2307 84.2131 25.292L84.5351 26.074H84.4891C84.3051 26.074 84.1824 26.1967 84.1211 26.442L83.9831 27.086C83.9524 27.546 83.9064 27.776 83.8451 27.776C83.9064 27.8067 83.9831 27.8373 84.0751 27.868C84.1671 27.8987 84.2437 27.9447 84.3051 28.006C84.3971 28.4967 84.4124 29.0027 84.3511 29.524C84.3204 29.7693 84.2897 29.984 84.2591 30.168C84.2591 30.352 84.2591 30.5053 84.2591 30.628L83.9371 30.812L84.0291 30.95C84.1824 30.9807 84.2591 30.996 84.2591 30.996L84.3971 30.95L84.4891 31.088C84.4584 31.1493 84.3971 31.2413 84.3051 31.364C84.2437 31.456 84.1517 31.5787 84.0291 31.732C84.1517 31.7627 84.2744 31.7473 84.3971 31.686C84.5197 31.7167 84.5811 31.8087 84.5811 31.962L84.5351 32.146C84.4737 32.2687 84.4431 32.3453 84.4431 32.376L84.5351 33.342L84.3511 33.94C84.3817 33.9707 84.3971 34.0627 84.3971 34.216C84.2437 34.676 84.1671 34.8447 84.1671 34.722C84.1977 35.1207 84.2131 35.3353 84.2131 35.366C84.1517 35.4273 84.1211 35.504 84.1211 35.596L84.0751 36.286C83.8297 36.3473 83.7071 36.5927 83.7071 37.022C83.5844 37.0527 83.4004 37.1907 83.1551 37.436C83.1244 37.5587 83.0631 37.6967 82.9711 37.85C82.9097 37.9727 82.8177 38.1413 82.6951 38.356L82.1431 38.678V38.908H82.0051C81.7904 38.908 81.6371 39.0307 81.5451 39.276L80.8091 39.644C80.6864 39.644 80.4564 39.69 80.1191 39.782C79.9964 39.8433 79.8277 39.9047 79.6131 39.966C79.3984 40.058 79.1684 40.15 78.9231 40.242H78.8771C78.8464 40.242 78.8311 40.2267 78.8311 40.196C78.8311 40.196 78.8157 40.196 78.7851 40.196L78.3711 40.334ZM73.7711 14.62C73.7711 14.5587 73.7864 14.5127 73.8171 14.482C73.8171 14.4513 73.6944 14.2673 73.4491 13.93C73.2344 13.6847 73.1271 13.4853 73.1271 13.332C72.9124 13.3627 72.8051 13.4393 72.8051 13.562V14.114C72.8051 14.298 72.9431 14.4207 73.2191 14.482L73.7711 14.62ZM83.1551 14.758L83.2471 14.712H83.3391C83.3697 14.6813 83.3851 14.574 83.3851 14.39C83.3237 14.1447 83.2471 14.022 83.1551 14.022C83.0017 14.3287 82.9251 14.4513 82.9251 14.39C82.9251 14.482 83.0017 14.6047 83.1551 14.758ZM81.3611 14.298C81.3611 14.2367 81.3304 14.1753 81.2691 14.114C81.2384 14.0527 81.1771 14.068 81.0851 14.16C81.0851 14.252 81.1771 14.298 81.3611 14.298ZM81.9131 17.564C82.0051 17.5947 82.0971 17.5333 82.1891 17.38C82.1584 17.3493 82.0971 17.334 82.0051 17.334C81.9437 17.334 81.9131 17.4107 81.9131 17.564ZM74.0011 21.152L74.4151 20.922C74.4151 20.8607 74.3537 20.7687 74.2311 20.646C74.2311 20.646 74.2004 20.6153 74.1391 20.554H74.0011L73.8631 20.692C73.9244 20.7533 73.9704 20.9067 74.0011 21.152ZM72.6671 25.614C72.6977 25.5833 72.7744 25.5373 72.8971 25.476C72.8664 25.4453 72.7897 25.4453 72.6671 25.476V25.614ZM83.2011 25.936C83.2624 25.9667 83.3237 25.9513 83.3851 25.89C83.4157 25.8593 83.4004 25.7827 83.3391 25.66C83.2471 25.6907 83.2011 25.7827 83.2011 25.936ZM73.2651 25.89C73.3571 25.9207 73.4491 25.8747 73.5411 25.752C73.5104 25.7213 73.4644 25.706 73.4031 25.706C73.3111 25.706 73.2651 25.7673 73.2651 25.89ZM75.9791 26.718C75.9791 26.6873 75.9791 26.6873 75.9791 26.718V26.718ZM75.1971 27.684C75.2891 27.7147 75.3811 27.6687 75.4731 27.546C75.3811 27.454 75.3044 27.4387 75.2431 27.5C75.1817 27.5613 75.1664 27.6227 75.1971 27.684ZM73.7711 28.006H73.5871L73.7711 28.236V28.006ZM74.1851 30.49C74.2157 30.4593 74.2311 30.4133 74.2311 30.352C74.2311 30.26 74.1697 30.214 74.0471 30.214C74.0164 30.306 74.0624 30.398 74.1851 30.49ZM81.0851 31.272L81.1771 31.18C81.2077 31.1493 81.2231 31.1493 81.2231 31.18C81.2231 31.18 81.2384 31.1647 81.2691 31.134L81.1771 30.996C81.1771 30.996 81.1464 31.088 81.0851 31.272ZM75.7951 32.606C75.7951 32.5447 75.7644 32.4833 75.7031 32.422C75.6724 32.3607 75.6111 32.376 75.5191 32.468C75.5191 32.56 75.6111 32.606 75.7951 32.606ZM81.3151 34.17C81.4684 34.17 81.6831 34.032 81.9591 33.756V33.112H81.6831C81.4377 33.112 81.1771 33.3573 80.9011 33.848C81.0237 34.0627 81.1617 34.17 81.3151 34.17ZM70.8731 33.296L70.9191 33.342C70.8884 33.342 70.8731 33.342 70.8731 33.342V33.296ZM84.2591 35.32C84.2284 35.3813 84.2131 35.3967 84.2131 35.366C84.2131 35.366 84.2284 35.3507 84.2591 35.32ZM81.6831 35.55C81.7137 35.4887 81.6984 35.4273 81.6371 35.366C81.6064 35.3353 81.5297 35.3507 81.4071 35.412C81.4684 35.504 81.5604 35.55 81.6831 35.55ZM75.8411 38.126C75.8411 38.0647 75.7951 38.0187 75.7031 37.988L75.6111 38.034C75.6417 38.0647 75.6724 38.08 75.7031 38.08C75.7644 38.08 75.8104 38.0953 75.8411 38.126ZM75.9331 38.862C75.9331 38.8007 75.9024 38.7393 75.8411 38.678C75.8104 38.6167 75.7491 38.632 75.6571 38.724C75.6571 38.816 75.7491 38.862 75.9331 38.862ZM90.896 46.084C90.804 46.084 90.6507 46.0227 90.436 45.9L90.252 42.358C90.344 42.266 90.4207 41.9747 90.482 41.484L90.574 41.346C90.666 41.254 90.712 41.162 90.712 41.07C90.712 40.9473 90.6507 40.886 90.528 40.886L90.344 40.84C90.1907 40.6253 90.1293 40.3953 90.16 40.15C90.2213 40.0887 90.298 40.0427 90.39 40.012C90.482 39.9507 90.528 39.9047 90.528 39.874L90.252 37.758L90.068 37.16C90.0987 37.0987 90.114 37.022 90.114 36.93C90.114 36.838 90.1293 36.7307 90.16 36.608L90.482 36.562V36.424C90.3287 36.424 90.1907 36.3627 90.068 36.24C90.0987 36.1787 90.1293 36.1173 90.16 36.056C90.1907 35.964 90.2213 35.8567 90.252 35.734L90.022 34.676L89.884 33.388L90.022 33.02L90.114 32.652C89.9913 32.5293 89.9147 32.376 89.884 32.192L89.838 31.042L89.93 30.858C89.9913 30.7353 90.0067 30.6587 89.976 30.628C89.884 30.444 89.792 30.214 89.7 29.938V29.478C89.7307 29.4473 89.8073 29.4167 89.93 29.386C89.9913 29.202 90.022 29.064 90.022 28.972C89.9607 28.88 89.8993 28.7727 89.838 28.65L89.792 28.098C89.7613 27.9447 89.746 27.822 89.746 27.73C89.746 27.638 89.746 27.5613 89.746 27.5C89.7767 27.4693 89.792 27.362 89.792 27.178C89.792 27.178 89.7613 27.132 89.7 27.04C89.7 26.8253 89.792 26.5647 89.976 26.258C90.2213 25.9207 90.344 25.7213 90.344 25.66C90.344 25.476 90.2367 25.2613 90.022 25.016L89.976 24.97H89.838C89.8073 24.8167 89.7767 24.6633 89.746 24.51C89.746 24.3567 89.7307 24.2187 89.7 24.096C89.5467 23.82 89.4853 23.636 89.516 23.544L89.562 22.992L89.516 22.808L89.608 22.394L89.378 21.842C89.378 21.658 89.47 21.52 89.654 21.428C89.654 21.336 89.5927 21.2287 89.47 21.106C89.5007 21.0447 89.516 20.8607 89.516 20.554L89.24 19.358C89.24 19.0207 89.3473 18.852 89.562 18.852L89.792 18.898C89.8227 19.0207 90.0373 19.1127 90.436 19.174L90.758 19.496C90.942 19.496 91.0493 19.312 91.08 18.944C91.172 18.9747 91.402 18.99 91.77 18.99L92.046 18.944L92.23 19.266H92.368C92.3987 19.266 92.506 19.174 92.69 18.99C92.782 19.0207 92.8433 19.082 92.874 19.174C92.9353 19.358 92.9813 19.4653 93.012 19.496C93.2267 19.3427 93.3033 19.1433 93.242 18.898L93.978 18.852C94.162 18.852 94.2693 18.944 94.3 19.128C94.3613 19.312 94.5147 19.404 94.76 19.404C95.0053 19.3427 95.174 19.22 95.266 19.036C95.3273 18.852 95.4653 18.76 95.68 18.76H96.002C96.1247 18.7907 96.232 18.806 96.324 18.806C96.3853 18.7753 96.4467 18.7447 96.508 18.714C96.6 18.6833 96.7073 18.6527 96.83 18.622L97.382 18.714C97.4433 18.6833 97.52 18.6527 97.612 18.622C97.704 18.5913 97.8113 18.5607 97.934 18.53C98.026 18.53 98.1947 18.6067 98.44 18.76C98.4707 18.9747 98.5473 19.082 98.67 19.082C98.7007 19.082 98.7313 19.0667 98.762 19.036C98.762 19.0053 98.7927 18.99 98.854 18.99H99.222C99.1607 18.99 99.1913 19.082 99.314 19.266C99.406 19.45 99.544 19.5267 99.728 19.496C99.7587 19.5267 99.8047 19.5727 99.866 19.634C99.9273 19.6647 99.9887 19.7413 100.05 19.864C100.111 20.048 100.173 20.2013 100.234 20.324L100.648 20.738C100.771 20.8913 100.832 21.06 100.832 21.244L100.786 21.474V21.796C100.479 22.0107 100.326 22.164 100.326 22.256C100.387 22.4093 100.449 22.4707 100.51 22.44L100.648 22.394C100.924 22.394 101.077 22.5933 101.108 22.992C101.108 23.084 101.047 23.1913 100.924 23.314V24.096C100.985 24.1573 101.031 24.234 101.062 24.326C101.093 24.3873 101.139 24.464 101.2 24.556C101.169 24.5867 101.108 24.694 101.016 24.878V25.108C101.016 25.2613 101.062 25.4147 101.154 25.568L101.2 26.166L101.292 26.856L101.154 28.282C101.154 28.3433 101.215 28.4507 101.338 28.604C101.43 28.788 101.476 28.9107 101.476 28.972L101.384 30.766L101.338 30.72C101.093 30.72 100.97 30.8273 100.97 31.042C100.97 31.226 101.062 31.318 101.246 31.318L101.338 31.272L101.522 32.376C101.522 32.3453 101.507 32.33 101.476 32.33C101.476 32.33 101.461 32.3607 101.43 32.422C101.43 32.4833 101.415 32.5907 101.384 32.744C101.384 32.7747 101.384 32.8053 101.384 32.836C101.415 32.836 101.43 32.8513 101.43 32.882C101.43 33.0047 101.384 33.1887 101.292 33.434L101.522 33.572V34.17L101.66 34.492L101.522 34.676C101.522 34.7987 101.522 34.9673 101.522 35.182C101.522 35.366 101.507 35.5807 101.476 35.826C101.476 35.826 101.43 35.9027 101.338 36.056C101.246 36.1787 101.2 36.2553 101.2 36.286C101.231 36.3167 101.277 36.3933 101.338 36.516C101.399 36.608 101.43 36.6847 101.43 36.746C101.215 36.8993 101.047 37.0833 100.924 37.298C100.893 37.4207 100.847 37.574 100.786 37.758C100.755 37.9113 100.694 38.1107 100.602 38.356C100.541 38.4787 100.387 38.6013 100.142 38.724C99.8353 38.816 99.6667 38.9693 99.636 39.184L99.406 39.138C99.2833 39.1687 99.13 39.2147 98.946 39.276C98.7927 39.3373 98.624 39.3987 98.44 39.46C98.348 39.3987 98.21 39.3527 98.026 39.322C97.9953 39.322 97.9033 39.3987 97.75 39.552C97.6273 39.6747 97.5507 39.736 97.52 39.736C97.4893 39.736 97.4433 39.7053 97.382 39.644C97.3207 39.5827 97.2747 39.552 97.244 39.552L97.152 39.598H97.014L96.83 39.506C96.7073 39.3833 96.6307 39.322 96.6 39.322C96.416 39.23 96.1707 39.184 95.864 39.184C95.7107 38.8773 95.4193 38.7547 94.99 38.816C94.9593 38.7547 94.8367 38.8313 94.622 39.046L95.036 39.92C94.9747 39.9507 94.898 39.9967 94.806 40.058C94.7447 40.1193 94.6527 40.1807 94.53 40.242C94.53 40.2727 94.6067 40.3647 94.76 40.518C94.76 40.5487 94.7447 40.5793 94.714 40.61C94.714 40.6407 94.714 40.6867 94.714 40.748C94.714 40.9627 94.8367 41.2233 95.082 41.53L95.266 44.382C95.2353 44.4127 95.22 44.52 95.22 44.704C95.22 44.9187 95.2047 45.1947 95.174 45.532V45.486C95.174 45.486 95.128 45.6393 95.036 45.946L94.76 45.854C94.7293 45.854 94.6987 45.8693 94.668 45.9L94.53 45.946C94.4687 45.946 94.3767 45.8847 94.254 45.762H94.024L93.656 45.854L93.334 45.946C93.3033 45.946 93.2727 45.9307 93.242 45.9C93.2113 45.9 93.1653 45.8847 93.104 45.854C92.9507 45.7927 92.8587 45.7773 92.828 45.808L92.736 45.854H92.644C92.6133 45.854 92.506 45.8233 92.322 45.762L92.046 45.624C92.0153 45.624 91.9387 45.6853 91.816 45.808C91.6933 45.9307 91.586 45.992 91.494 45.992L90.896 46.084ZM98.486 21.014C98.5167 20.9527 98.5013 20.8913 98.44 20.83C98.4093 20.7993 98.3327 20.8147 98.21 20.876C98.2713 20.968 98.3633 21.014 98.486 21.014ZM92.92 22.394C92.9507 22.3633 92.92 22.3173 92.828 22.256C92.7667 22.256 92.7207 22.2713 92.69 22.302L92.92 22.394ZM94.852 36.378L95.036 36.286C95.4653 36.0407 95.8027 35.918 96.048 35.918C96.2013 35.918 96.324 35.9793 96.416 36.102C96.508 36.1633 96.6307 36.1633 96.784 36.102V35.918C96.8453 35.4887 96.8453 35.044 96.784 34.584C96.9987 34.4613 97.106 34.262 97.106 33.986C97.106 33.7713 97.0447 33.5567 96.922 33.342C96.7993 33.1273 96.7533 33.0047 96.784 32.974C96.876 32.7287 96.922 32.5907 96.922 32.56L96.646 32.054C96.646 31.1033 96.6153 30.5973 96.554 30.536C96.6153 30.26 96.7533 30.122 96.968 30.122L97.198 30.26L97.428 30.214V29.984C97.2747 29.984 97.1827 29.9227 97.152 29.8C97.1213 29.708 97.06 29.616 96.968 29.524C96.8453 29.4627 96.7533 29.4013 96.692 29.34C96.6613 29.248 96.6153 28.972 96.554 28.512V28.19C96.554 27.7607 96.6 27.5 96.692 27.408C96.6613 27.3773 96.6153 27.27 96.554 27.086L96.508 25.66C96.5387 25.5373 96.554 25.384 96.554 25.2C96.5847 24.9853 96.5847 24.7553 96.554 24.51L96.646 24.372L96.508 24.234C96.508 24.1727 96.4927 24.1113 96.462 24.05C96.462 23.9887 96.4467 23.912 96.416 23.82C96.4773 23.544 96.462 23.3447 96.37 23.222L95.404 22.44C95.4653 22.624 95.4653 22.7467 95.404 22.808L95.266 22.854L95.128 22.532C95.0667 22.5013 94.99 22.486 94.898 22.486C94.8367 22.486 94.7447 22.4707 94.622 22.44C94.6833 22.624 94.714 22.7467 94.714 22.808C94.714 22.992 94.6373 23.1607 94.484 23.314H94.346C94.0393 23.314 93.8553 23.406 93.794 23.59V23.774C93.794 23.866 93.794 23.9887 93.794 24.142C93.794 24.2953 93.8093 24.4793 93.84 24.694C93.8707 25.3687 93.932 25.706 94.024 25.706L94.07 25.66C94.1007 25.6907 94.1467 25.706 94.208 25.706C94.2693 25.706 94.3307 25.7213 94.392 25.752C94.3613 25.844 94.346 25.9667 94.346 26.12C94.346 26.2427 94.346 26.396 94.346 26.58L94.484 27.362C94.5147 27.3927 94.4993 27.454 94.438 27.546L94.346 27.776L94.484 28.098L94.438 28.512L94.53 29.156L94.668 29.432C94.668 29.4627 94.6527 29.5393 94.622 29.662C94.5913 29.7847 94.5453 29.9533 94.484 30.168L94.53 31.824C94.5913 31.8853 94.6373 31.962 94.668 32.054C94.7293 32.1153 94.7753 32.192 94.806 32.284L94.76 32.376C94.7293 32.4067 94.714 32.4527 94.714 32.514C94.6833 32.606 94.668 32.744 94.668 32.928C94.668 33.112 94.6987 33.3267 94.76 33.572L94.852 33.94C94.8213 34.0013 94.7907 34.078 94.76 34.17C94.7293 34.262 94.6987 34.3693 94.668 34.492L94.622 34.86C94.622 34.9213 94.5913 34.9827 94.53 35.044C94.53 35.1053 94.5607 35.1973 94.622 35.32C94.622 35.3507 94.6067 35.366 94.576 35.366C94.5453 35.366 94.53 35.3967 94.53 35.458C94.53 35.5193 94.5607 35.55 94.622 35.55L94.576 35.688C94.576 35.7493 94.576 35.826 94.576 35.918C94.576 35.9793 94.5913 36.0713 94.622 36.194C94.6527 36.3167 94.7293 36.378 94.852 36.378ZM93.012 23.13C93.0427 23.0687 93.0273 23.0073 92.966 22.946C92.9353 22.9153 92.8587 22.9307 92.736 22.992C92.7973 23.084 92.8893 23.13 93.012 23.13ZM101.2 24.602V24.556C101.2 24.556 101.2 24.5713 101.2 24.602ZM100.05 31.64L100.234 31.548L100.142 31.41C100.111 31.4407 100.096 31.4713 100.096 31.502C100.096 31.5327 100.081 31.5787 100.05 31.64ZM98.348 33.204C98.4093 33.204 98.4707 33.1733 98.532 33.112C98.5627 33.0813 98.5473 33.02 98.486 32.928C98.394 32.9587 98.348 33.0507 98.348 33.204ZM100.74 35.964C100.74 35.872 100.709 35.7953 100.648 35.734C100.587 35.6727 100.525 35.7033 100.464 35.826C100.525 35.918 100.617 35.964 100.74 35.964ZM91.724 38.632C91.8467 38.5093 91.8927 38.4327 91.862 38.402L92.046 38.494C92.138 38.494 92.2147 38.4173 92.276 38.264C92.1227 38.0187 91.908 37.896 91.632 37.896C91.448 37.896 91.356 38.0187 91.356 38.264L91.494 38.632H91.724ZM91.172 39.598C91.2027 39.5367 91.1873 39.4753 91.126 39.414C91.0953 39.3833 91.0187 39.3987 90.896 39.46C90.9573 39.552 91.0493 39.598 91.172 39.598Z" fill="black"/>
<path d="M135.019 28.3385C135.044 28.2786 135.058 28.2156 135.077 28.1538C135.094 28.0953 135.116 28.0393 135.129 27.9788C135.153 27.8559 135.166 27.7311 135.166 27.6063C135.166 27.6044 135.167 27.6031 135.167 27.6018C135.167 27.4751 135.153 27.3483 135.129 27.2235C135.117 27.1662 135.096 27.1135 135.08 27.0582C135.061 26.9932 135.046 26.9269 135.019 26.8639C134.992 26.797 134.954 26.7365 134.919 26.6734C134.893 26.6265 134.873 26.5776 134.842 26.5325C134.771 26.4257 134.69 26.326 134.599 26.2353L129.683 21.3186C128.929 20.5646 127.707 20.5646 126.953 21.3186C126.199 22.072 126.199 23.2944 126.953 24.0478L128.577 25.6717H123.684C121.483 25.6717 119.694 23.8818 119.694 21.6809V18.9716C119.694 17.9056 118.83 17.0415 117.763 17.0415C116.697 17.0415 115.833 17.9056 115.833 18.9716V21.6809C115.833 26.0101 119.356 29.5319 123.684 29.5319H128.578L126.953 31.1564C126.199 31.9105 126.199 33.1322 126.953 33.8856C127.33 34.262 127.824 34.4505 128.318 34.4505C128.812 34.4505 129.306 34.262 129.683 33.885L134.599 28.9677C134.69 28.877 134.772 28.7773 134.843 28.6698C134.871 28.6273 134.89 28.5817 134.915 28.5379C134.951 28.4723 134.99 28.4086 135.019 28.3385Z" fill="black"/>
</svg>
